<mxfile host="app.diagrams.net" agent="Mozilla/5.0 (Windows NT 10.0; Win64; x64) AppleWebKit/537.36 (KHTML, like Gecko) Chrome/129.0.0.0 Safari/537.36" version="24.8.0" pages="12">
  <diagram name="基础原理" id="8x33fkPUv0E4Zp1TOgYf">
    <mxGraphModel dx="954" dy="558" grid="1" gridSize="10" guides="1" tooltips="1" connect="1" arrows="1" fold="1" page="1" pageScale="1" pageWidth="1169" pageHeight="827" math="0" shadow="1">
      <root>
        <mxCell id="0" />
        <mxCell id="1" parent="0" />
        <mxCell id="zFguvdIsxAZQglaaFDAD-1" value="" style="verticalLabelPosition=bottom;shadow=0;dashed=0;align=center;html=1;verticalAlign=top;shape=mxgraph.electrical.mosfets1.p-channel_mosfet_1;fillColor=#dae8fc;strokeColor=#6c8ebf;" parent="1" vertex="1">
          <mxGeometry x="160" y="130" width="95" height="100" as="geometry" />
        </mxCell>
        <mxCell id="N_jyfrHUR9yX90MjjCYY-2" value="" style="verticalLabelPosition=bottom;shadow=0;dashed=0;align=center;html=1;verticalAlign=top;shape=mxgraph.electrical.mosfets1.p-channel_mosfet_1;fillColor=#f5f5f5;strokeColor=#666666;fontColor=#333333;" parent="1" vertex="1">
          <mxGeometry x="160" y="330" width="95" height="100" as="geometry" />
        </mxCell>
        <mxCell id="N_jyfrHUR9yX90MjjCYY-9" style="edgeStyle=orthogonalEdgeStyle;rounded=0;orthogonalLoop=1;jettySize=auto;html=1;exitX=0.7;exitY=0;exitDx=0;exitDy=0;exitPerimeter=0;endArrow=oval;endFill=1;" parent="1" source="N_jyfrHUR9yX90MjjCYY-3" edge="1">
          <mxGeometry relative="1" as="geometry">
            <mxPoint x="427" y="110" as="targetPoint" />
          </mxGeometry>
        </mxCell>
        <mxCell id="N_jyfrHUR9yX90MjjCYY-3" value="" style="verticalLabelPosition=bottom;shadow=0;dashed=0;align=center;html=1;verticalAlign=top;shape=mxgraph.electrical.mosfets1.p-channel_mosfet_1;fillColor=#dae8fc;strokeColor=#6c8ebf;" parent="1" vertex="1">
          <mxGeometry x="360" y="130" width="95" height="100" as="geometry" />
        </mxCell>
        <mxCell id="N_jyfrHUR9yX90MjjCYY-14" style="edgeStyle=orthogonalEdgeStyle;rounded=0;orthogonalLoop=1;jettySize=auto;html=1;exitX=0.7;exitY=1;exitDx=0;exitDy=0;exitPerimeter=0;endArrow=oval;endFill=1;" parent="1" source="N_jyfrHUR9yX90MjjCYY-4" edge="1">
          <mxGeometry relative="1" as="geometry">
            <mxPoint x="427" y="450" as="targetPoint" />
          </mxGeometry>
        </mxCell>
        <mxCell id="N_jyfrHUR9yX90MjjCYY-4" value="" style="verticalLabelPosition=bottom;shadow=0;dashed=0;align=center;html=1;verticalAlign=top;shape=mxgraph.electrical.mosfets1.p-channel_mosfet_1;fillColor=#f5f5f5;strokeColor=#666666;fontColor=#333333;" parent="1" vertex="1">
          <mxGeometry x="360" y="330" width="95" height="100" as="geometry" />
        </mxCell>
        <mxCell id="N_jyfrHUR9yX90MjjCYY-5" value="" style="verticalLabelPosition=bottom;shadow=0;dashed=0;align=center;html=1;verticalAlign=top;shape=mxgraph.electrical.mosfets1.p-channel_mosfet_1;fillColor=#dae8fc;strokeColor=#6c8ebf;" parent="1" vertex="1">
          <mxGeometry x="560" y="130" width="95" height="100" as="geometry" />
        </mxCell>
        <mxCell id="N_jyfrHUR9yX90MjjCYY-6" value="" style="verticalLabelPosition=bottom;shadow=0;dashed=0;align=center;html=1;verticalAlign=top;shape=mxgraph.electrical.mosfets1.p-channel_mosfet_1;fillColor=#f5f5f5;strokeColor=#666666;fontColor=#333333;" parent="1" vertex="1">
          <mxGeometry x="560" y="330" width="95" height="100" as="geometry" />
        </mxCell>
        <mxCell id="N_jyfrHUR9yX90MjjCYY-8" style="edgeStyle=orthogonalEdgeStyle;rounded=0;orthogonalLoop=1;jettySize=auto;html=1;exitX=0.7;exitY=0;exitDx=0;exitDy=0;exitPerimeter=0;entryX=0.7;entryY=0;entryDx=0;entryDy=0;entryPerimeter=0;endArrow=none;endFill=0;" parent="1" source="zFguvdIsxAZQglaaFDAD-1" target="N_jyfrHUR9yX90MjjCYY-5" edge="1">
          <mxGeometry relative="1" as="geometry" />
        </mxCell>
        <mxCell id="N_jyfrHUR9yX90MjjCYY-10" style="edgeStyle=orthogonalEdgeStyle;rounded=0;orthogonalLoop=1;jettySize=auto;html=1;exitX=0.7;exitY=1;exitDx=0;exitDy=0;exitPerimeter=0;entryX=0.7;entryY=0;entryDx=0;entryDy=0;entryPerimeter=0;endArrow=none;endFill=0;" parent="1" source="zFguvdIsxAZQglaaFDAD-1" target="N_jyfrHUR9yX90MjjCYY-2" edge="1">
          <mxGeometry relative="1" as="geometry" />
        </mxCell>
        <mxCell id="N_jyfrHUR9yX90MjjCYY-11" style="edgeStyle=orthogonalEdgeStyle;rounded=0;orthogonalLoop=1;jettySize=auto;html=1;exitX=0.7;exitY=1;exitDx=0;exitDy=0;exitPerimeter=0;entryX=0.7;entryY=0;entryDx=0;entryDy=0;entryPerimeter=0;endArrow=none;endFill=0;" parent="1" source="N_jyfrHUR9yX90MjjCYY-3" target="N_jyfrHUR9yX90MjjCYY-4" edge="1">
          <mxGeometry relative="1" as="geometry" />
        </mxCell>
        <mxCell id="N_jyfrHUR9yX90MjjCYY-12" style="edgeStyle=orthogonalEdgeStyle;rounded=0;orthogonalLoop=1;jettySize=auto;html=1;exitX=0.7;exitY=1;exitDx=0;exitDy=0;exitPerimeter=0;entryX=0.7;entryY=0;entryDx=0;entryDy=0;entryPerimeter=0;endArrow=none;endFill=0;" parent="1" source="N_jyfrHUR9yX90MjjCYY-5" target="N_jyfrHUR9yX90MjjCYY-6" edge="1">
          <mxGeometry relative="1" as="geometry" />
        </mxCell>
        <mxCell id="N_jyfrHUR9yX90MjjCYY-13" style="edgeStyle=orthogonalEdgeStyle;rounded=0;orthogonalLoop=1;jettySize=auto;html=1;exitX=0.7;exitY=1;exitDx=0;exitDy=0;exitPerimeter=0;entryX=0.7;entryY=1;entryDx=0;entryDy=0;entryPerimeter=0;endArrow=none;endFill=0;" parent="1" source="N_jyfrHUR9yX90MjjCYY-2" target="N_jyfrHUR9yX90MjjCYY-6" edge="1">
          <mxGeometry relative="1" as="geometry" />
        </mxCell>
        <mxCell id="N_jyfrHUR9yX90MjjCYY-15" value="Q1" style="text;html=1;align=center;verticalAlign=middle;resizable=0;points=[];autosize=1;strokeColor=none;fillColor=none;" parent="1" vertex="1">
          <mxGeometry x="170" y="165" width="40" height="30" as="geometry" />
        </mxCell>
        <mxCell id="N_jyfrHUR9yX90MjjCYY-16" value="Q3" style="text;html=1;align=center;verticalAlign=middle;resizable=0;points=[];autosize=1;strokeColor=none;fillColor=none;" parent="1" vertex="1">
          <mxGeometry x="370" y="165" width="40" height="30" as="geometry" />
        </mxCell>
        <mxCell id="N_jyfrHUR9yX90MjjCYY-17" value="Q5" style="text;html=1;align=center;verticalAlign=middle;resizable=0;points=[];autosize=1;strokeColor=none;fillColor=none;" parent="1" vertex="1">
          <mxGeometry x="565" y="160" width="40" height="30" as="geometry" />
        </mxCell>
        <mxCell id="N_jyfrHUR9yX90MjjCYY-18" value="Q0" style="text;html=1;align=center;verticalAlign=middle;resizable=0;points=[];autosize=1;strokeColor=none;fillColor=none;" parent="1" vertex="1">
          <mxGeometry x="170" y="365" width="40" height="30" as="geometry" />
        </mxCell>
        <mxCell id="N_jyfrHUR9yX90MjjCYY-19" value="Q2" style="text;html=1;align=center;verticalAlign=middle;resizable=0;points=[];autosize=1;strokeColor=none;fillColor=none;" parent="1" vertex="1">
          <mxGeometry x="370" y="365" width="40" height="30" as="geometry" />
        </mxCell>
        <mxCell id="N_jyfrHUR9yX90MjjCYY-20" value="Q4" style="text;html=1;align=center;verticalAlign=middle;resizable=0;points=[];autosize=1;strokeColor=none;fillColor=none;" parent="1" vertex="1">
          <mxGeometry x="565" y="365" width="40" height="30" as="geometry" />
        </mxCell>
        <mxCell id="N_jyfrHUR9yX90MjjCYY-21" value="" style="endArrow=none;html=1;rounded=0;startArrow=oval;startFill=1;" parent="1" edge="1">
          <mxGeometry width="50" height="50" relative="1" as="geometry">
            <mxPoint x="226" y="110" as="sourcePoint" />
            <mxPoint x="120" y="110" as="targetPoint" />
          </mxGeometry>
        </mxCell>
        <mxCell id="N_jyfrHUR9yX90MjjCYY-22" value="" style="endArrow=none;html=1;rounded=0;startArrow=oval;startFill=1;" parent="1" edge="1">
          <mxGeometry width="50" height="50" relative="1" as="geometry">
            <mxPoint x="227" y="450" as="sourcePoint" />
            <mxPoint x="120" y="450" as="targetPoint" />
          </mxGeometry>
        </mxCell>
        <mxCell id="N_jyfrHUR9yX90MjjCYY-23" value="U+" style="text;html=1;align=center;verticalAlign=middle;resizable=0;points=[];autosize=1;strokeColor=none;fillColor=none;" parent="1" vertex="1">
          <mxGeometry x="110" y="78" width="40" height="30" as="geometry" />
        </mxCell>
        <mxCell id="N_jyfrHUR9yX90MjjCYY-24" value="U-" style="text;html=1;align=center;verticalAlign=middle;resizable=0;points=[];autosize=1;strokeColor=none;fillColor=none;" parent="1" vertex="1">
          <mxGeometry x="100" y="418" width="40" height="30" as="geometry" />
        </mxCell>
        <mxCell id="N_jyfrHUR9yX90MjjCYY-35" value="" style="group" parent="1" vertex="1" connectable="0">
          <mxGeometry x="809.9984757729337" y="190" width="215.92304845413264" height="190" as="geometry" />
        </mxCell>
        <mxCell id="N_jyfrHUR9yX90MjjCYY-39" value="" style="group" parent="N_jyfrHUR9yX90MjjCYY-35" vertex="1" connectable="0">
          <mxGeometry width="215.92304845413264" height="190" as="geometry" />
        </mxCell>
        <mxCell id="N_jyfrHUR9yX90MjjCYY-48" style="edgeStyle=orthogonalEdgeStyle;rounded=0;orthogonalLoop=1;jettySize=auto;html=1;exitX=0;exitY=0.645;exitDx=0;exitDy=0;exitPerimeter=0;endArrow=oval;endFill=1;" parent="N_jyfrHUR9yX90MjjCYY-39" source="N_jyfrHUR9yX90MjjCYY-7" edge="1">
          <mxGeometry relative="1" as="geometry">
            <mxPoint x="-179.99847577293372" y="100" as="targetPoint" />
            <Array as="points">
              <mxPoint x="-90" y="180" />
              <mxPoint x="-90" y="100" />
            </Array>
          </mxGeometry>
        </mxCell>
        <mxCell id="N_jyfrHUR9yX90MjjCYY-7" value="" style="pointerEvents=1;verticalLabelPosition=bottom;shadow=0;dashed=0;align=center;html=1;verticalAlign=top;shape=mxgraph.electrical.inductors.inductor_5;rotation=-30;fillColor=#ffe6cc;strokeColor=#d79b00;" parent="N_jyfrHUR9yX90MjjCYY-39" vertex="1">
          <mxGeometry x="-4.53847577293368" y="141" width="120" height="14" as="geometry" />
        </mxCell>
        <mxCell id="N_jyfrHUR9yX90MjjCYY-44" style="edgeStyle=orthogonalEdgeStyle;rounded=0;orthogonalLoop=1;jettySize=auto;html=1;exitX=1;exitY=0.645;exitDx=0;exitDy=0;exitPerimeter=0;endArrow=oval;endFill=1;" parent="N_jyfrHUR9yX90MjjCYY-39" source="N_jyfrHUR9yX90MjjCYY-32" edge="1">
          <mxGeometry relative="1" as="geometry">
            <mxPoint x="-579.9984757729337" y="60" as="targetPoint" />
            <Array as="points">
              <mxPoint x="108" y="-20" />
              <mxPoint x="-90" y="-20" />
              <mxPoint x="-90" y="61" />
            </Array>
          </mxGeometry>
        </mxCell>
        <mxCell id="N_jyfrHUR9yX90MjjCYY-32" value="" style="pointerEvents=1;verticalLabelPosition=bottom;shadow=0;dashed=0;align=center;html=1;verticalAlign=top;shape=mxgraph.electrical.inductors.inductor_5;rotation=-90;fillColor=#ffe6cc;strokeColor=#d79b00;" parent="N_jyfrHUR9yX90MjjCYY-39" vertex="1">
          <mxGeometry x="45.46152422706632" y="53" width="120" height="14" as="geometry" />
        </mxCell>
        <mxCell id="N_jyfrHUR9yX90MjjCYY-50" style="edgeStyle=orthogonalEdgeStyle;rounded=0;orthogonalLoop=1;jettySize=auto;html=1;exitX=1;exitY=0.645;exitDx=0;exitDy=0;exitPerimeter=0;endArrow=oval;endFill=1;" parent="N_jyfrHUR9yX90MjjCYY-39" source="N_jyfrHUR9yX90MjjCYY-33" edge="1">
          <mxGeometry relative="1" as="geometry">
            <mxPoint x="-379.9984757729337" y="130" as="targetPoint" />
            <Array as="points">
              <mxPoint x="211" y="250" />
              <mxPoint x="-130" y="250" />
              <mxPoint x="-130" y="131" />
            </Array>
          </mxGeometry>
        </mxCell>
        <mxCell id="N_jyfrHUR9yX90MjjCYY-33" value="" style="pointerEvents=1;verticalLabelPosition=bottom;shadow=0;dashed=0;align=center;html=1;verticalAlign=top;shape=mxgraph.electrical.inductors.inductor_5;rotation=30;fillColor=#ffe6cc;strokeColor=#d79b00;" parent="N_jyfrHUR9yX90MjjCYY-39" vertex="1">
          <mxGeometry x="100.46152422706632" y="141" width="120" height="14" as="geometry" />
        </mxCell>
        <mxCell id="N_jyfrHUR9yX90MjjCYY-36" value="A" style="text;html=1;align=center;verticalAlign=middle;resizable=0;points=[];autosize=1;strokeColor=none;fillColor=none;" parent="N_jyfrHUR9yX90MjjCYY-39" vertex="1">
          <mxGeometry x="110.00152422706631" width="30" height="30" as="geometry" />
        </mxCell>
        <mxCell id="N_jyfrHUR9yX90MjjCYY-37" value="B" style="text;html=1;align=center;verticalAlign=middle;resizable=0;points=[];autosize=1;strokeColor=none;fillColor=none;" parent="N_jyfrHUR9yX90MjjCYY-39" vertex="1">
          <mxGeometry x="180.00152422706628" y="160" width="30" height="30" as="geometry" />
        </mxCell>
        <mxCell id="N_jyfrHUR9yX90MjjCYY-38" value="C" style="text;html=1;align=center;verticalAlign=middle;resizable=0;points=[];autosize=1;strokeColor=none;fillColor=none;" parent="N_jyfrHUR9yX90MjjCYY-39" vertex="1">
          <mxGeometry x="10.001524227066284" y="160" width="30" height="30" as="geometry" />
        </mxCell>
        <mxCell id="sw1aEAKmd9Gbyf5mYCJC-11" value="" style="group" parent="1" vertex="1" connectable="0">
          <mxGeometry x="330" y="480" width="202" height="308" as="geometry" />
        </mxCell>
        <mxCell id="sw1aEAKmd9Gbyf5mYCJC-2" value="VCC" style="text;html=1;align=center;verticalAlign=middle;resizable=0;points=[];autosize=1;strokeColor=none;fillColor=none;" parent="sw1aEAKmd9Gbyf5mYCJC-11" vertex="1">
          <mxGeometry x="50" width="50" height="30" as="geometry" />
        </mxCell>
        <mxCell id="sw1aEAKmd9Gbyf5mYCJC-3" value="GND" style="text;html=1;align=center;verticalAlign=middle;resizable=0;points=[];autosize=1;strokeColor=none;fillColor=none;" parent="sw1aEAKmd9Gbyf5mYCJC-11" vertex="1">
          <mxGeometry x="50" y="278" width="50" height="30" as="geometry" />
        </mxCell>
        <mxCell id="sw1aEAKmd9Gbyf5mYCJC-10" value="" style="group" parent="sw1aEAKmd9Gbyf5mYCJC-11" vertex="1" connectable="0">
          <mxGeometry y="40" width="202" height="220" as="geometry" />
        </mxCell>
        <mxCell id="N_jyfrHUR9yX90MjjCYY-57" style="edgeStyle=orthogonalEdgeStyle;rounded=0;orthogonalLoop=1;jettySize=auto;html=1;exitX=1;exitY=0.8;exitDx=0;exitDy=0;entryX=0;entryY=0.8;entryDx=0;entryDy=0;endArrow=none;endFill=0;" parent="sw1aEAKmd9Gbyf5mYCJC-10" source="N_jyfrHUR9yX90MjjCYY-51" target="N_jyfrHUR9yX90MjjCYY-53" edge="1">
          <mxGeometry relative="1" as="geometry" />
        </mxCell>
        <mxCell id="N_jyfrHUR9yX90MjjCYY-66" style="edgeStyle=orthogonalEdgeStyle;rounded=0;orthogonalLoop=1;jettySize=auto;html=1;exitX=0;exitY=0.8;exitDx=0;exitDy=0;entryX=0;entryY=0.8;entryDx=0;entryDy=0;endArrow=none;endFill=0;" parent="sw1aEAKmd9Gbyf5mYCJC-10" source="N_jyfrHUR9yX90MjjCYY-51" target="N_jyfrHUR9yX90MjjCYY-62" edge="1">
          <mxGeometry relative="1" as="geometry" />
        </mxCell>
        <mxCell id="N_jyfrHUR9yX90MjjCYY-51" value="" style="html=1;shape=mxgraph.electrical.electro-mechanical.singleSwitch;aspect=fixed;elSwitchState=off;direction=south;" parent="sw1aEAKmd9Gbyf5mYCJC-10" vertex="1">
          <mxGeometry y="20" width="20" height="75" as="geometry" />
        </mxCell>
        <mxCell id="N_jyfrHUR9yX90MjjCYY-64" style="edgeStyle=orthogonalEdgeStyle;rounded=0;orthogonalLoop=1;jettySize=auto;html=1;exitX=1;exitY=0.8;exitDx=0;exitDy=0;entryX=1;entryY=0.8;entryDx=0;entryDy=0;endArrow=none;endFill=0;" parent="sw1aEAKmd9Gbyf5mYCJC-10" source="N_jyfrHUR9yX90MjjCYY-53" target="N_jyfrHUR9yX90MjjCYY-63" edge="1">
          <mxGeometry relative="1" as="geometry" />
        </mxCell>
        <mxCell id="N_jyfrHUR9yX90MjjCYY-53" value="" style="html=1;shape=mxgraph.electrical.electro-mechanical.singleSwitch;aspect=fixed;elSwitchState=off;direction=south;" parent="sw1aEAKmd9Gbyf5mYCJC-10" vertex="1">
          <mxGeometry y="124" width="20" height="75" as="geometry" />
        </mxCell>
        <mxCell id="N_jyfrHUR9yX90MjjCYY-58" style="edgeStyle=orthogonalEdgeStyle;rounded=0;orthogonalLoop=1;jettySize=auto;html=1;exitX=1;exitY=0.8;exitDx=0;exitDy=0;entryX=0;entryY=0.8;entryDx=0;entryDy=0;endArrow=none;endFill=0;" parent="sw1aEAKmd9Gbyf5mYCJC-10" source="N_jyfrHUR9yX90MjjCYY-59" target="N_jyfrHUR9yX90MjjCYY-60" edge="1">
          <mxGeometry relative="1" as="geometry" />
        </mxCell>
        <mxCell id="N_jyfrHUR9yX90MjjCYY-67" style="edgeStyle=orthogonalEdgeStyle;rounded=0;orthogonalLoop=1;jettySize=auto;html=1;exitX=0;exitY=0.8;exitDx=0;exitDy=0;endArrow=oval;endFill=1;" parent="sw1aEAKmd9Gbyf5mYCJC-10" source="N_jyfrHUR9yX90MjjCYY-59" edge="1">
          <mxGeometry relative="1" as="geometry">
            <mxPoint x="83" as="targetPoint" />
          </mxGeometry>
        </mxCell>
        <mxCell id="N_jyfrHUR9yX90MjjCYY-59" value="" style="html=1;shape=mxgraph.electrical.electro-mechanical.singleSwitch;aspect=fixed;elSwitchState=off;direction=south;" parent="sw1aEAKmd9Gbyf5mYCJC-10" vertex="1">
          <mxGeometry x="79" y="20" width="20" height="75" as="geometry" />
        </mxCell>
        <mxCell id="N_jyfrHUR9yX90MjjCYY-65" style="edgeStyle=orthogonalEdgeStyle;rounded=0;orthogonalLoop=1;jettySize=auto;html=1;exitX=1;exitY=0.8;exitDx=0;exitDy=0;endArrow=oval;endFill=1;" parent="sw1aEAKmd9Gbyf5mYCJC-10" source="N_jyfrHUR9yX90MjjCYY-60" edge="1">
          <mxGeometry relative="1" as="geometry">
            <mxPoint x="83" y="220" as="targetPoint" />
          </mxGeometry>
        </mxCell>
        <mxCell id="N_jyfrHUR9yX90MjjCYY-60" value="" style="html=1;shape=mxgraph.electrical.electro-mechanical.singleSwitch;aspect=fixed;elSwitchState=off;direction=south;" parent="sw1aEAKmd9Gbyf5mYCJC-10" vertex="1">
          <mxGeometry x="79" y="124" width="20" height="75" as="geometry" />
        </mxCell>
        <mxCell id="N_jyfrHUR9yX90MjjCYY-61" style="edgeStyle=orthogonalEdgeStyle;rounded=0;orthogonalLoop=1;jettySize=auto;html=1;exitX=1;exitY=0.8;exitDx=0;exitDy=0;entryX=0;entryY=0.8;entryDx=0;entryDy=0;endArrow=none;endFill=0;" parent="sw1aEAKmd9Gbyf5mYCJC-10" source="N_jyfrHUR9yX90MjjCYY-62" target="N_jyfrHUR9yX90MjjCYY-63" edge="1">
          <mxGeometry relative="1" as="geometry" />
        </mxCell>
        <mxCell id="N_jyfrHUR9yX90MjjCYY-62" value="" style="html=1;shape=mxgraph.electrical.electro-mechanical.singleSwitch;aspect=fixed;elSwitchState=off;direction=south;" parent="sw1aEAKmd9Gbyf5mYCJC-10" vertex="1">
          <mxGeometry x="161" y="20" width="20" height="75" as="geometry" />
        </mxCell>
        <mxCell id="N_jyfrHUR9yX90MjjCYY-63" value="" style="html=1;shape=mxgraph.electrical.electro-mechanical.singleSwitch;aspect=fixed;elSwitchState=off;direction=south;" parent="sw1aEAKmd9Gbyf5mYCJC-10" vertex="1">
          <mxGeometry x="161" y="124" width="20" height="75" as="geometry" />
        </mxCell>
        <mxCell id="sw1aEAKmd9Gbyf5mYCJC-4" value="" style="endArrow=none;html=1;rounded=0;startArrow=oval;startFill=1;" parent="sw1aEAKmd9Gbyf5mYCJC-10" edge="1">
          <mxGeometry width="50" height="50" relative="1" as="geometry">
            <mxPoint x="4" y="119.81999999999994" as="sourcePoint" />
            <mxPoint x="40" y="120" as="targetPoint" />
          </mxGeometry>
        </mxCell>
        <mxCell id="sw1aEAKmd9Gbyf5mYCJC-5" value="" style="endArrow=none;html=1;rounded=0;startArrow=oval;startFill=1;" parent="sw1aEAKmd9Gbyf5mYCJC-10" edge="1">
          <mxGeometry width="50" height="50" relative="1" as="geometry">
            <mxPoint x="84" y="120.81999999999994" as="sourcePoint" />
            <mxPoint x="120" y="121" as="targetPoint" />
          </mxGeometry>
        </mxCell>
        <mxCell id="sw1aEAKmd9Gbyf5mYCJC-6" value="" style="endArrow=none;html=1;rounded=0;startArrow=oval;startFill=1;" parent="sw1aEAKmd9Gbyf5mYCJC-10" edge="1">
          <mxGeometry width="50" height="50" relative="1" as="geometry">
            <mxPoint x="166" y="120.81999999999994" as="sourcePoint" />
            <mxPoint x="202" y="121" as="targetPoint" />
          </mxGeometry>
        </mxCell>
        <mxCell id="sw1aEAKmd9Gbyf5mYCJC-7" value="A" style="text;html=1;align=center;verticalAlign=middle;resizable=0;points=[];autosize=1;strokeColor=none;fillColor=none;" parent="sw1aEAKmd9Gbyf5mYCJC-10" vertex="1">
          <mxGeometry x="10" y="88" width="30" height="30" as="geometry" />
        </mxCell>
        <mxCell id="sw1aEAKmd9Gbyf5mYCJC-8" value="B" style="text;html=1;align=center;verticalAlign=middle;resizable=0;points=[];autosize=1;strokeColor=none;fillColor=none;" parent="sw1aEAKmd9Gbyf5mYCJC-10" vertex="1">
          <mxGeometry x="80" y="88" width="30" height="30" as="geometry" />
        </mxCell>
        <mxCell id="sw1aEAKmd9Gbyf5mYCJC-9" value="C" style="text;html=1;align=center;verticalAlign=middle;resizable=0;points=[];autosize=1;strokeColor=none;fillColor=none;" parent="sw1aEAKmd9Gbyf5mYCJC-10" vertex="1">
          <mxGeometry x="165" y="88" width="30" height="30" as="geometry" />
        </mxCell>
      </root>
    </mxGraphModel>
  </diagram>
  <diagram id="6M9INNawB4apd-UWicH7" name="第 2 页">
    <mxGraphModel dx="954" dy="558" grid="1" gridSize="10" guides="1" tooltips="1" connect="1" arrows="1" fold="1" page="1" pageScale="1" pageWidth="1169" pageHeight="827" math="0" shadow="1">
      <root>
        <mxCell id="0" />
        <mxCell id="1" parent="0" />
        <mxCell id="n__wIeWLncb3fW2Wz-OS-1" value="" style="verticalLabelPosition=bottom;shadow=0;dashed=0;align=center;html=1;verticalAlign=top;shape=mxgraph.electrical.mosfets1.p-channel_mosfet_1;fillColor=#dae8fc;strokeColor=#6c8ebf;" parent="1" vertex="1">
          <mxGeometry x="67" y="152" width="95" height="100" as="geometry" />
        </mxCell>
        <mxCell id="n__wIeWLncb3fW2Wz-OS-2" value="" style="verticalLabelPosition=bottom;shadow=0;dashed=0;align=center;html=1;verticalAlign=top;shape=mxgraph.electrical.mosfets1.p-channel_mosfet_1;fillColor=#f5f5f5;strokeColor=#666666;fontColor=#333333;" parent="1" vertex="1">
          <mxGeometry x="67" y="352" width="95" height="100" as="geometry" />
        </mxCell>
        <mxCell id="n__wIeWLncb3fW2Wz-OS-3" style="edgeStyle=orthogonalEdgeStyle;rounded=0;orthogonalLoop=1;jettySize=auto;html=1;exitX=0.7;exitY=0;exitDx=0;exitDy=0;exitPerimeter=0;endArrow=oval;endFill=1;" parent="1" source="n__wIeWLncb3fW2Wz-OS-4" edge="1">
          <mxGeometry relative="1" as="geometry">
            <mxPoint x="334" y="132" as="targetPoint" />
          </mxGeometry>
        </mxCell>
        <mxCell id="n__wIeWLncb3fW2Wz-OS-4" value="" style="verticalLabelPosition=bottom;shadow=0;dashed=0;align=center;html=1;verticalAlign=top;shape=mxgraph.electrical.mosfets1.p-channel_mosfet_1;fillColor=#dae8fc;strokeColor=#6c8ebf;" parent="1" vertex="1">
          <mxGeometry x="267" y="152" width="95" height="100" as="geometry" />
        </mxCell>
        <mxCell id="n__wIeWLncb3fW2Wz-OS-5" style="edgeStyle=orthogonalEdgeStyle;rounded=0;orthogonalLoop=1;jettySize=auto;html=1;exitX=0.7;exitY=1;exitDx=0;exitDy=0;exitPerimeter=0;endArrow=oval;endFill=1;" parent="1" source="n__wIeWLncb3fW2Wz-OS-6" edge="1">
          <mxGeometry relative="1" as="geometry">
            <mxPoint x="334" y="472" as="targetPoint" />
          </mxGeometry>
        </mxCell>
        <mxCell id="n__wIeWLncb3fW2Wz-OS-6" value="" style="verticalLabelPosition=bottom;shadow=0;dashed=0;align=center;html=1;verticalAlign=top;shape=mxgraph.electrical.mosfets1.p-channel_mosfet_1;fillColor=#f5f5f5;strokeColor=#666666;fontColor=#333333;" parent="1" vertex="1">
          <mxGeometry x="267" y="352" width="95" height="100" as="geometry" />
        </mxCell>
        <mxCell id="n__wIeWLncb3fW2Wz-OS-7" value="" style="verticalLabelPosition=bottom;shadow=0;dashed=0;align=center;html=1;verticalAlign=top;shape=mxgraph.electrical.mosfets1.p-channel_mosfet_1;fillColor=#dae8fc;strokeColor=#6c8ebf;" parent="1" vertex="1">
          <mxGeometry x="467" y="152" width="95" height="100" as="geometry" />
        </mxCell>
        <mxCell id="n__wIeWLncb3fW2Wz-OS-8" value="" style="verticalLabelPosition=bottom;shadow=0;dashed=0;align=center;html=1;verticalAlign=top;shape=mxgraph.electrical.mosfets1.p-channel_mosfet_1;fillColor=#f5f5f5;strokeColor=#666666;fontColor=#333333;" parent="1" vertex="1">
          <mxGeometry x="467" y="352" width="95" height="100" as="geometry" />
        </mxCell>
        <mxCell id="n__wIeWLncb3fW2Wz-OS-9" style="edgeStyle=orthogonalEdgeStyle;rounded=0;orthogonalLoop=1;jettySize=auto;html=1;exitX=0.7;exitY=0;exitDx=0;exitDy=0;exitPerimeter=0;entryX=0.7;entryY=0;entryDx=0;entryDy=0;entryPerimeter=0;endArrow=none;endFill=0;" parent="1" source="n__wIeWLncb3fW2Wz-OS-1" target="n__wIeWLncb3fW2Wz-OS-7" edge="1">
          <mxGeometry relative="1" as="geometry" />
        </mxCell>
        <mxCell id="n__wIeWLncb3fW2Wz-OS-10" style="edgeStyle=orthogonalEdgeStyle;rounded=0;orthogonalLoop=1;jettySize=auto;html=1;exitX=0.7;exitY=1;exitDx=0;exitDy=0;exitPerimeter=0;entryX=0.7;entryY=0;entryDx=0;entryDy=0;entryPerimeter=0;endArrow=none;endFill=0;" parent="1" source="n__wIeWLncb3fW2Wz-OS-1" target="n__wIeWLncb3fW2Wz-OS-2" edge="1">
          <mxGeometry relative="1" as="geometry" />
        </mxCell>
        <mxCell id="n__wIeWLncb3fW2Wz-OS-11" style="edgeStyle=orthogonalEdgeStyle;rounded=0;orthogonalLoop=1;jettySize=auto;html=1;exitX=0.7;exitY=1;exitDx=0;exitDy=0;exitPerimeter=0;entryX=0.7;entryY=0;entryDx=0;entryDy=0;entryPerimeter=0;endArrow=none;endFill=0;" parent="1" source="n__wIeWLncb3fW2Wz-OS-4" target="n__wIeWLncb3fW2Wz-OS-6" edge="1">
          <mxGeometry relative="1" as="geometry" />
        </mxCell>
        <mxCell id="n__wIeWLncb3fW2Wz-OS-12" style="edgeStyle=orthogonalEdgeStyle;rounded=0;orthogonalLoop=1;jettySize=auto;html=1;exitX=0.7;exitY=1;exitDx=0;exitDy=0;exitPerimeter=0;entryX=0.7;entryY=0;entryDx=0;entryDy=0;entryPerimeter=0;endArrow=none;endFill=0;" parent="1" source="n__wIeWLncb3fW2Wz-OS-7" target="n__wIeWLncb3fW2Wz-OS-8" edge="1">
          <mxGeometry relative="1" as="geometry" />
        </mxCell>
        <mxCell id="n__wIeWLncb3fW2Wz-OS-13" style="edgeStyle=orthogonalEdgeStyle;rounded=0;orthogonalLoop=1;jettySize=auto;html=1;exitX=0.7;exitY=1;exitDx=0;exitDy=0;exitPerimeter=0;entryX=0.7;entryY=1;entryDx=0;entryDy=0;entryPerimeter=0;endArrow=none;endFill=0;" parent="1" source="n__wIeWLncb3fW2Wz-OS-2" target="n__wIeWLncb3fW2Wz-OS-8" edge="1">
          <mxGeometry relative="1" as="geometry" />
        </mxCell>
        <mxCell id="n__wIeWLncb3fW2Wz-OS-14" value="Q1" style="text;html=1;align=center;verticalAlign=middle;resizable=0;points=[];autosize=1;strokeColor=none;fillColor=none;" parent="1" vertex="1">
          <mxGeometry x="77" y="187" width="40" height="30" as="geometry" />
        </mxCell>
        <mxCell id="n__wIeWLncb3fW2Wz-OS-15" value="Q3" style="text;html=1;align=center;verticalAlign=middle;resizable=0;points=[];autosize=1;strokeColor=none;fillColor=none;" parent="1" vertex="1">
          <mxGeometry x="277" y="187" width="40" height="30" as="geometry" />
        </mxCell>
        <mxCell id="n__wIeWLncb3fW2Wz-OS-16" value="Q5" style="text;html=1;align=center;verticalAlign=middle;resizable=0;points=[];autosize=1;strokeColor=none;fillColor=none;" parent="1" vertex="1">
          <mxGeometry x="472" y="182" width="40" height="30" as="geometry" />
        </mxCell>
        <mxCell id="n__wIeWLncb3fW2Wz-OS-17" value="Q0" style="text;html=1;align=center;verticalAlign=middle;resizable=0;points=[];autosize=1;strokeColor=none;fillColor=none;" parent="1" vertex="1">
          <mxGeometry x="77" y="387" width="40" height="30" as="geometry" />
        </mxCell>
        <mxCell id="n__wIeWLncb3fW2Wz-OS-18" value="Q2" style="text;html=1;align=center;verticalAlign=middle;resizable=0;points=[];autosize=1;strokeColor=none;fillColor=none;" parent="1" vertex="1">
          <mxGeometry x="277" y="387" width="40" height="30" as="geometry" />
        </mxCell>
        <mxCell id="n__wIeWLncb3fW2Wz-OS-19" value="Q4" style="text;html=1;align=center;verticalAlign=middle;resizable=0;points=[];autosize=1;strokeColor=none;fillColor=none;" parent="1" vertex="1">
          <mxGeometry x="472" y="387" width="40" height="30" as="geometry" />
        </mxCell>
        <mxCell id="n__wIeWLncb3fW2Wz-OS-20" value="" style="endArrow=none;html=1;rounded=0;startArrow=oval;startFill=1;" parent="1" edge="1">
          <mxGeometry width="50" height="50" relative="1" as="geometry">
            <mxPoint x="133" y="132" as="sourcePoint" />
            <mxPoint x="27" y="132" as="targetPoint" />
          </mxGeometry>
        </mxCell>
        <mxCell id="n__wIeWLncb3fW2Wz-OS-21" value="" style="endArrow=none;html=1;rounded=0;startArrow=oval;startFill=1;" parent="1" edge="1">
          <mxGeometry width="50" height="50" relative="1" as="geometry">
            <mxPoint x="134" y="472" as="sourcePoint" />
            <mxPoint x="27" y="472" as="targetPoint" />
          </mxGeometry>
        </mxCell>
        <mxCell id="n__wIeWLncb3fW2Wz-OS-22" value="U+" style="text;html=1;align=center;verticalAlign=middle;resizable=0;points=[];autosize=1;strokeColor=none;fillColor=none;" parent="1" vertex="1">
          <mxGeometry x="17" y="100" width="40" height="30" as="geometry" />
        </mxCell>
        <mxCell id="n__wIeWLncb3fW2Wz-OS-23" value="U-" style="text;html=1;align=center;verticalAlign=middle;resizable=0;points=[];autosize=1;strokeColor=none;fillColor=none;" parent="1" vertex="1">
          <mxGeometry x="12" y="440" width="40" height="30" as="geometry" />
        </mxCell>
        <mxCell id="n__wIeWLncb3fW2Wz-OS-24" value="" style="group" parent="1" vertex="1" connectable="0">
          <mxGeometry x="716.9984757729337" y="212" width="215.92304845413264" height="190" as="geometry" />
        </mxCell>
        <mxCell id="n__wIeWLncb3fW2Wz-OS-25" value="" style="group" parent="n__wIeWLncb3fW2Wz-OS-24" vertex="1" connectable="0">
          <mxGeometry width="215.92304845413264" height="190" as="geometry" />
        </mxCell>
        <mxCell id="n__wIeWLncb3fW2Wz-OS-26" style="edgeStyle=orthogonalEdgeStyle;rounded=0;orthogonalLoop=1;jettySize=auto;html=1;exitX=0;exitY=0.645;exitDx=0;exitDy=0;exitPerimeter=0;endArrow=oval;endFill=1;" parent="n__wIeWLncb3fW2Wz-OS-25" source="n__wIeWLncb3fW2Wz-OS-27" edge="1">
          <mxGeometry relative="1" as="geometry">
            <mxPoint x="-179.99847577293372" y="100" as="targetPoint" />
            <Array as="points">
              <mxPoint x="-90" y="180" />
              <mxPoint x="-90" y="100" />
            </Array>
          </mxGeometry>
        </mxCell>
        <mxCell id="n__wIeWLncb3fW2Wz-OS-27" value="" style="pointerEvents=1;verticalLabelPosition=bottom;shadow=0;dashed=0;align=center;html=1;verticalAlign=top;shape=mxgraph.electrical.inductors.inductor_5;rotation=-30;fillColor=#ffe6cc;strokeColor=#d79b00;" parent="n__wIeWLncb3fW2Wz-OS-25" vertex="1">
          <mxGeometry x="-4.53847577293368" y="141" width="120" height="14" as="geometry" />
        </mxCell>
        <mxCell id="n__wIeWLncb3fW2Wz-OS-28" style="edgeStyle=orthogonalEdgeStyle;rounded=0;orthogonalLoop=1;jettySize=auto;html=1;exitX=1;exitY=0.645;exitDx=0;exitDy=0;exitPerimeter=0;endArrow=oval;endFill=1;" parent="n__wIeWLncb3fW2Wz-OS-25" source="n__wIeWLncb3fW2Wz-OS-29" edge="1">
          <mxGeometry relative="1" as="geometry">
            <mxPoint x="-579.9984757729337" y="60" as="targetPoint" />
            <Array as="points">
              <mxPoint x="108" y="-20" />
              <mxPoint x="-90" y="-20" />
              <mxPoint x="-90" y="61" />
            </Array>
          </mxGeometry>
        </mxCell>
        <mxCell id="n__wIeWLncb3fW2Wz-OS-29" value="" style="pointerEvents=1;verticalLabelPosition=bottom;shadow=0;dashed=0;align=center;html=1;verticalAlign=top;shape=mxgraph.electrical.inductors.inductor_5;rotation=-90;fillColor=#ffe6cc;strokeColor=#d79b00;" parent="n__wIeWLncb3fW2Wz-OS-25" vertex="1">
          <mxGeometry x="45.46152422706632" y="53" width="120" height="14" as="geometry" />
        </mxCell>
        <mxCell id="n__wIeWLncb3fW2Wz-OS-30" style="edgeStyle=orthogonalEdgeStyle;rounded=0;orthogonalLoop=1;jettySize=auto;html=1;exitX=1;exitY=0.645;exitDx=0;exitDy=0;exitPerimeter=0;endArrow=oval;endFill=1;" parent="n__wIeWLncb3fW2Wz-OS-25" source="n__wIeWLncb3fW2Wz-OS-31" edge="1">
          <mxGeometry relative="1" as="geometry">
            <mxPoint x="-379.9984757729337" y="130" as="targetPoint" />
            <Array as="points">
              <mxPoint x="211" y="250" />
              <mxPoint x="-130" y="250" />
              <mxPoint x="-130" y="131" />
            </Array>
          </mxGeometry>
        </mxCell>
        <mxCell id="n__wIeWLncb3fW2Wz-OS-31" value="" style="pointerEvents=1;verticalLabelPosition=bottom;shadow=0;dashed=0;align=center;html=1;verticalAlign=top;shape=mxgraph.electrical.inductors.inductor_5;rotation=30;fillColor=#ffe6cc;strokeColor=#d79b00;" parent="n__wIeWLncb3fW2Wz-OS-25" vertex="1">
          <mxGeometry x="100.46152422706632" y="141" width="120" height="14" as="geometry" />
        </mxCell>
        <mxCell id="n__wIeWLncb3fW2Wz-OS-32" value="A" style="text;html=1;align=center;verticalAlign=middle;resizable=0;points=[];autosize=1;strokeColor=none;fillColor=none;" parent="n__wIeWLncb3fW2Wz-OS-25" vertex="1">
          <mxGeometry x="110.00152422706631" width="30" height="30" as="geometry" />
        </mxCell>
        <mxCell id="n__wIeWLncb3fW2Wz-OS-33" value="B" style="text;html=1;align=center;verticalAlign=middle;resizable=0;points=[];autosize=1;strokeColor=none;fillColor=none;" parent="n__wIeWLncb3fW2Wz-OS-25" vertex="1">
          <mxGeometry x="180.00152422706628" y="160" width="30" height="30" as="geometry" />
        </mxCell>
        <mxCell id="n__wIeWLncb3fW2Wz-OS-34" value="C" style="text;html=1;align=center;verticalAlign=middle;resizable=0;points=[];autosize=1;strokeColor=none;fillColor=none;" parent="n__wIeWLncb3fW2Wz-OS-25" vertex="1">
          <mxGeometry x="10.001524227066284" y="160" width="30" height="30" as="geometry" />
        </mxCell>
        <mxCell id="n__wIeWLncb3fW2Wz-OS-35" value="Q1、Q2 导通" style="text;html=1;align=center;verticalAlign=middle;resizable=0;points=[];autosize=1;strokeColor=none;fillColor=none;" parent="1" vertex="1">
          <mxGeometry x="52" y="70" width="90" height="30" as="geometry" />
        </mxCell>
      </root>
    </mxGraphModel>
  </diagram>
  <diagram id="QmeAqVQavnlHBW-9chxp" name="第 3 页">
    <mxGraphModel dx="947" dy="558" grid="1" gridSize="10" guides="1" tooltips="1" connect="1" arrows="1" fold="1" page="1" pageScale="1" pageWidth="1169" pageHeight="827" math="0" shadow="1">
      <root>
        <mxCell id="0" />
        <mxCell id="1" parent="0" />
        <mxCell id="4MH0LKm0CJX2zj-VHdnF-1" value="" style="verticalLabelPosition=bottom;shadow=0;dashed=0;align=center;html=1;verticalAlign=top;shape=mxgraph.electrical.mosfets1.p-channel_mosfet_1;fillColor=#dae8fc;strokeColor=#6c8ebf;" vertex="1" parent="1">
          <mxGeometry x="67" y="152" width="95" height="100" as="geometry" />
        </mxCell>
        <mxCell id="4MH0LKm0CJX2zj-VHdnF-2" value="" style="verticalLabelPosition=bottom;shadow=0;dashed=0;align=center;html=1;verticalAlign=top;shape=mxgraph.electrical.mosfets1.p-channel_mosfet_1;fillColor=#f5f5f5;strokeColor=#666666;fontColor=#333333;" vertex="1" parent="1">
          <mxGeometry x="67" y="352" width="95" height="100" as="geometry" />
        </mxCell>
        <mxCell id="4MH0LKm0CJX2zj-VHdnF-3" style="edgeStyle=orthogonalEdgeStyle;rounded=0;orthogonalLoop=1;jettySize=auto;html=1;exitX=0.7;exitY=0;exitDx=0;exitDy=0;exitPerimeter=0;endArrow=oval;endFill=1;" edge="1" parent="1" source="4MH0LKm0CJX2zj-VHdnF-4">
          <mxGeometry relative="1" as="geometry">
            <mxPoint x="334" y="132" as="targetPoint" />
          </mxGeometry>
        </mxCell>
        <mxCell id="4MH0LKm0CJX2zj-VHdnF-4" value="" style="verticalLabelPosition=bottom;shadow=0;dashed=0;align=center;html=1;verticalAlign=top;shape=mxgraph.electrical.mosfets1.p-channel_mosfet_1;fillColor=#dae8fc;strokeColor=#6c8ebf;" vertex="1" parent="1">
          <mxGeometry x="267" y="152" width="95" height="100" as="geometry" />
        </mxCell>
        <mxCell id="4MH0LKm0CJX2zj-VHdnF-5" style="edgeStyle=orthogonalEdgeStyle;rounded=0;orthogonalLoop=1;jettySize=auto;html=1;exitX=0.7;exitY=1;exitDx=0;exitDy=0;exitPerimeter=0;endArrow=oval;endFill=1;" edge="1" parent="1" source="4MH0LKm0CJX2zj-VHdnF-6">
          <mxGeometry relative="1" as="geometry">
            <mxPoint x="334" y="472" as="targetPoint" />
          </mxGeometry>
        </mxCell>
        <mxCell id="4MH0LKm0CJX2zj-VHdnF-6" value="" style="verticalLabelPosition=bottom;shadow=0;dashed=0;align=center;html=1;verticalAlign=top;shape=mxgraph.electrical.mosfets1.p-channel_mosfet_1;fillColor=#f5f5f5;strokeColor=#666666;fontColor=#333333;" vertex="1" parent="1">
          <mxGeometry x="267" y="352" width="95" height="100" as="geometry" />
        </mxCell>
        <mxCell id="4MH0LKm0CJX2zj-VHdnF-7" value="" style="verticalLabelPosition=bottom;shadow=0;dashed=0;align=center;html=1;verticalAlign=top;shape=mxgraph.electrical.mosfets1.p-channel_mosfet_1;fillColor=#dae8fc;strokeColor=#6c8ebf;" vertex="1" parent="1">
          <mxGeometry x="467" y="152" width="95" height="100" as="geometry" />
        </mxCell>
        <mxCell id="4MH0LKm0CJX2zj-VHdnF-8" value="" style="verticalLabelPosition=bottom;shadow=0;dashed=0;align=center;html=1;verticalAlign=top;shape=mxgraph.electrical.mosfets1.p-channel_mosfet_1;fillColor=#f5f5f5;strokeColor=#666666;fontColor=#333333;" vertex="1" parent="1">
          <mxGeometry x="467" y="352" width="95" height="100" as="geometry" />
        </mxCell>
        <mxCell id="4MH0LKm0CJX2zj-VHdnF-9" style="edgeStyle=orthogonalEdgeStyle;rounded=0;orthogonalLoop=1;jettySize=auto;html=1;exitX=0.7;exitY=0;exitDx=0;exitDy=0;exitPerimeter=0;entryX=0.7;entryY=0;entryDx=0;entryDy=0;entryPerimeter=0;endArrow=none;endFill=0;" edge="1" parent="1" source="4MH0LKm0CJX2zj-VHdnF-1" target="4MH0LKm0CJX2zj-VHdnF-7">
          <mxGeometry relative="1" as="geometry" />
        </mxCell>
        <mxCell id="4MH0LKm0CJX2zj-VHdnF-10" style="edgeStyle=orthogonalEdgeStyle;rounded=0;orthogonalLoop=1;jettySize=auto;html=1;exitX=0.7;exitY=1;exitDx=0;exitDy=0;exitPerimeter=0;entryX=0.7;entryY=0;entryDx=0;entryDy=0;entryPerimeter=0;endArrow=none;endFill=0;" edge="1" parent="1" source="4MH0LKm0CJX2zj-VHdnF-1" target="4MH0LKm0CJX2zj-VHdnF-2">
          <mxGeometry relative="1" as="geometry" />
        </mxCell>
        <mxCell id="4MH0LKm0CJX2zj-VHdnF-11" style="edgeStyle=orthogonalEdgeStyle;rounded=0;orthogonalLoop=1;jettySize=auto;html=1;exitX=0.7;exitY=1;exitDx=0;exitDy=0;exitPerimeter=0;entryX=0.7;entryY=0;entryDx=0;entryDy=0;entryPerimeter=0;endArrow=none;endFill=0;" edge="1" parent="1" source="4MH0LKm0CJX2zj-VHdnF-4" target="4MH0LKm0CJX2zj-VHdnF-6">
          <mxGeometry relative="1" as="geometry" />
        </mxCell>
        <mxCell id="4MH0LKm0CJX2zj-VHdnF-12" style="edgeStyle=orthogonalEdgeStyle;rounded=0;orthogonalLoop=1;jettySize=auto;html=1;exitX=0.7;exitY=1;exitDx=0;exitDy=0;exitPerimeter=0;entryX=0.7;entryY=0;entryDx=0;entryDy=0;entryPerimeter=0;endArrow=none;endFill=0;" edge="1" parent="1" source="4MH0LKm0CJX2zj-VHdnF-7" target="4MH0LKm0CJX2zj-VHdnF-8">
          <mxGeometry relative="1" as="geometry" />
        </mxCell>
        <mxCell id="4MH0LKm0CJX2zj-VHdnF-13" style="edgeStyle=orthogonalEdgeStyle;rounded=0;orthogonalLoop=1;jettySize=auto;html=1;exitX=0.7;exitY=1;exitDx=0;exitDy=0;exitPerimeter=0;entryX=0.7;entryY=1;entryDx=0;entryDy=0;entryPerimeter=0;endArrow=none;endFill=0;" edge="1" parent="1" source="4MH0LKm0CJX2zj-VHdnF-2" target="4MH0LKm0CJX2zj-VHdnF-8">
          <mxGeometry relative="1" as="geometry" />
        </mxCell>
        <mxCell id="4MH0LKm0CJX2zj-VHdnF-14" value="Q1" style="text;html=1;align=center;verticalAlign=middle;resizable=0;points=[];autosize=1;strokeColor=none;fillColor=none;" vertex="1" parent="1">
          <mxGeometry x="77" y="187" width="40" height="30" as="geometry" />
        </mxCell>
        <mxCell id="4MH0LKm0CJX2zj-VHdnF-15" value="Q3" style="text;html=1;align=center;verticalAlign=middle;resizable=0;points=[];autosize=1;strokeColor=none;fillColor=none;" vertex="1" parent="1">
          <mxGeometry x="277" y="187" width="40" height="30" as="geometry" />
        </mxCell>
        <mxCell id="4MH0LKm0CJX2zj-VHdnF-16" value="Q5" style="text;html=1;align=center;verticalAlign=middle;resizable=0;points=[];autosize=1;strokeColor=none;fillColor=none;" vertex="1" parent="1">
          <mxGeometry x="472" y="182" width="40" height="30" as="geometry" />
        </mxCell>
        <mxCell id="4MH0LKm0CJX2zj-VHdnF-17" value="Q0" style="text;html=1;align=center;verticalAlign=middle;resizable=0;points=[];autosize=1;strokeColor=none;fillColor=none;" vertex="1" parent="1">
          <mxGeometry x="77" y="387" width="40" height="30" as="geometry" />
        </mxCell>
        <mxCell id="4MH0LKm0CJX2zj-VHdnF-18" value="Q2" style="text;html=1;align=center;verticalAlign=middle;resizable=0;points=[];autosize=1;strokeColor=none;fillColor=none;" vertex="1" parent="1">
          <mxGeometry x="277" y="387" width="40" height="30" as="geometry" />
        </mxCell>
        <mxCell id="4MH0LKm0CJX2zj-VHdnF-19" value="Q4" style="text;html=1;align=center;verticalAlign=middle;resizable=0;points=[];autosize=1;strokeColor=none;fillColor=none;" vertex="1" parent="1">
          <mxGeometry x="472" y="387" width="40" height="30" as="geometry" />
        </mxCell>
        <mxCell id="4MH0LKm0CJX2zj-VHdnF-20" value="" style="endArrow=none;html=1;rounded=0;startArrow=oval;startFill=1;" edge="1" parent="1">
          <mxGeometry width="50" height="50" relative="1" as="geometry">
            <mxPoint x="133" y="132" as="sourcePoint" />
            <mxPoint x="27" y="132" as="targetPoint" />
          </mxGeometry>
        </mxCell>
        <mxCell id="4MH0LKm0CJX2zj-VHdnF-21" value="" style="endArrow=none;html=1;rounded=0;startArrow=oval;startFill=1;" edge="1" parent="1">
          <mxGeometry width="50" height="50" relative="1" as="geometry">
            <mxPoint x="134" y="472" as="sourcePoint" />
            <mxPoint x="27" y="472" as="targetPoint" />
          </mxGeometry>
        </mxCell>
        <mxCell id="4MH0LKm0CJX2zj-VHdnF-22" value="" style="group" vertex="1" connectable="0" parent="1">
          <mxGeometry x="716.9984757729337" y="212" width="215.92304845413264" height="190" as="geometry" />
        </mxCell>
        <mxCell id="4MH0LKm0CJX2zj-VHdnF-23" value="" style="group" vertex="1" connectable="0" parent="4MH0LKm0CJX2zj-VHdnF-22">
          <mxGeometry width="215.92304845413264" height="190" as="geometry" />
        </mxCell>
        <mxCell id="4MH0LKm0CJX2zj-VHdnF-24" style="edgeStyle=orthogonalEdgeStyle;rounded=0;orthogonalLoop=1;jettySize=auto;html=1;exitX=0;exitY=0.645;exitDx=0;exitDy=0;exitPerimeter=0;endArrow=oval;endFill=1;" edge="1" parent="4MH0LKm0CJX2zj-VHdnF-23" source="4MH0LKm0CJX2zj-VHdnF-25">
          <mxGeometry relative="1" as="geometry">
            <mxPoint x="-179.99847577293372" y="100" as="targetPoint" />
            <Array as="points">
              <mxPoint x="-90" y="180" />
              <mxPoint x="-90" y="100" />
            </Array>
          </mxGeometry>
        </mxCell>
        <mxCell id="4MH0LKm0CJX2zj-VHdnF-25" value="" style="pointerEvents=1;verticalLabelPosition=bottom;shadow=0;dashed=0;align=center;html=1;verticalAlign=top;shape=mxgraph.electrical.inductors.inductor_5;rotation=-30;fillColor=#ffe6cc;strokeColor=#d79b00;" vertex="1" parent="4MH0LKm0CJX2zj-VHdnF-23">
          <mxGeometry x="-4.53847577293368" y="141" width="120" height="14" as="geometry" />
        </mxCell>
        <mxCell id="4MH0LKm0CJX2zj-VHdnF-26" style="edgeStyle=orthogonalEdgeStyle;rounded=0;orthogonalLoop=1;jettySize=auto;html=1;exitX=1;exitY=0.645;exitDx=0;exitDy=0;exitPerimeter=0;endArrow=oval;endFill=1;" edge="1" parent="4MH0LKm0CJX2zj-VHdnF-23" source="4MH0LKm0CJX2zj-VHdnF-27">
          <mxGeometry relative="1" as="geometry">
            <mxPoint x="-579.9984757729337" y="60" as="targetPoint" />
            <Array as="points">
              <mxPoint x="108" y="-20" />
              <mxPoint x="-90" y="-20" />
              <mxPoint x="-90" y="61" />
            </Array>
          </mxGeometry>
        </mxCell>
        <mxCell id="4MH0LKm0CJX2zj-VHdnF-27" value="" style="pointerEvents=1;verticalLabelPosition=bottom;shadow=0;dashed=0;align=center;html=1;verticalAlign=top;shape=mxgraph.electrical.inductors.inductor_5;rotation=-90;fillColor=#ffe6cc;strokeColor=#d79b00;" vertex="1" parent="4MH0LKm0CJX2zj-VHdnF-23">
          <mxGeometry x="45.46152422706632" y="53" width="120" height="14" as="geometry" />
        </mxCell>
        <mxCell id="4MH0LKm0CJX2zj-VHdnF-28" style="edgeStyle=orthogonalEdgeStyle;rounded=0;orthogonalLoop=1;jettySize=auto;html=1;exitX=1;exitY=0.645;exitDx=0;exitDy=0;exitPerimeter=0;endArrow=oval;endFill=1;" edge="1" parent="4MH0LKm0CJX2zj-VHdnF-23" source="4MH0LKm0CJX2zj-VHdnF-29">
          <mxGeometry relative="1" as="geometry">
            <mxPoint x="-379.9984757729337" y="130" as="targetPoint" />
            <Array as="points">
              <mxPoint x="211" y="250" />
              <mxPoint x="-130" y="250" />
              <mxPoint x="-130" y="131" />
            </Array>
          </mxGeometry>
        </mxCell>
        <mxCell id="4MH0LKm0CJX2zj-VHdnF-29" value="" style="pointerEvents=1;verticalLabelPosition=bottom;shadow=0;dashed=0;align=center;html=1;verticalAlign=top;shape=mxgraph.electrical.inductors.inductor_5;rotation=30;fillColor=#ffe6cc;strokeColor=#d79b00;" vertex="1" parent="4MH0LKm0CJX2zj-VHdnF-23">
          <mxGeometry x="100.46152422706632" y="141" width="120" height="14" as="geometry" />
        </mxCell>
        <mxCell id="4MH0LKm0CJX2zj-VHdnF-30" value="A" style="text;html=1;align=center;verticalAlign=middle;resizable=0;points=[];autosize=1;strokeColor=none;fillColor=none;" vertex="1" parent="4MH0LKm0CJX2zj-VHdnF-23">
          <mxGeometry x="110.00152422706631" width="30" height="30" as="geometry" />
        </mxCell>
        <mxCell id="4MH0LKm0CJX2zj-VHdnF-31" value="B" style="text;html=1;align=center;verticalAlign=middle;resizable=0;points=[];autosize=1;strokeColor=none;fillColor=none;" vertex="1" parent="4MH0LKm0CJX2zj-VHdnF-23">
          <mxGeometry x="180.00152422706628" y="160" width="30" height="30" as="geometry" />
        </mxCell>
        <mxCell id="4MH0LKm0CJX2zj-VHdnF-32" value="C" style="text;html=1;align=center;verticalAlign=middle;resizable=0;points=[];autosize=1;strokeColor=none;fillColor=none;" vertex="1" parent="4MH0LKm0CJX2zj-VHdnF-23">
          <mxGeometry x="10.001524227066284" y="160" width="30" height="30" as="geometry" />
        </mxCell>
        <mxCell id="4MH0LKm0CJX2zj-VHdnF-33" value="Q1、Q4 导通" style="text;html=1;align=center;verticalAlign=middle;resizable=0;points=[];autosize=1;strokeColor=none;fillColor=none;" vertex="1" parent="1">
          <mxGeometry x="52" y="70" width="90" height="30" as="geometry" />
        </mxCell>
        <mxCell id="4MH0LKm0CJX2zj-VHdnF-34" value="" style="endArrow=block;html=1;rounded=0;endFill=1;fillColor=#e51400;strokeColor=#B20000;" edge="1" parent="1">
          <mxGeometry width="50" height="50" relative="1" as="geometry">
            <mxPoint x="134" y="146" as="sourcePoint" />
            <mxPoint x="134" y="163" as="targetPoint" />
          </mxGeometry>
        </mxCell>
        <mxCell id="5JDablbM_MmJdCh_7xC3-1" value="" style="endArrow=block;html=1;rounded=0;endFill=1;fillColor=#e51400;strokeColor=#B20000;" edge="1" parent="1">
          <mxGeometry width="50" height="50" relative="1" as="geometry">
            <mxPoint x="640" y="50" as="sourcePoint" />
            <mxPoint x="660" y="50" as="targetPoint" />
          </mxGeometry>
        </mxCell>
        <mxCell id="5JDablbM_MmJdCh_7xC3-2" value="" style="endArrow=block;html=1;rounded=0;endFill=1;fillColor=#e51400;strokeColor=#B20000;" edge="1" parent="1">
          <mxGeometry width="50" height="50" relative="1" as="geometry">
            <mxPoint x="640" y="50" as="sourcePoint" />
            <mxPoint x="660" y="50" as="targetPoint" />
          </mxGeometry>
        </mxCell>
        <mxCell id="FmajQwLPtj-QymJrHMdl-1" value="" style="endArrow=block;html=1;rounded=0;endFill=1;fillColor=#e51400;strokeColor=#B20000;" edge="1" parent="1">
          <mxGeometry width="50" height="50" relative="1" as="geometry">
            <mxPoint x="410" y="50" as="sourcePoint" />
            <mxPoint x="410" y="67" as="targetPoint" />
          </mxGeometry>
        </mxCell>
        <mxCell id="lU5eLZ_m1BFEMQEfFIm8-2" value="" style="endArrow=block;html=1;rounded=0;endFill=1;fillColor=#e51400;strokeColor=#B20000;" edge="1" parent="1">
          <mxGeometry width="50" height="50" relative="1" as="geometry">
            <mxPoint x="790" y="50" as="sourcePoint" />
            <mxPoint x="790" y="61" as="targetPoint" />
          </mxGeometry>
        </mxCell>
      </root>
    </mxGraphModel>
  </diagram>
  <diagram id="Ar0HzYjHNkWwR_JpQlL9" name="AB通电">
    <mxGraphModel dx="954" dy="558" grid="1" gridSize="10" guides="1" tooltips="1" connect="1" arrows="1" fold="1" page="1" pageScale="1" pageWidth="1169" pageHeight="827" math="0" shadow="0">
      <root>
        <mxCell id="0" />
        <mxCell id="1" parent="0" />
        <mxCell id="9FflIbUXml1EknMBM2VQ-1" value="" style="group" vertex="1" connectable="0" parent="1">
          <mxGeometry x="170" y="100" width="215.92304845413264" height="190" as="geometry" />
        </mxCell>
        <mxCell id="9FflIbUXml1EknMBM2VQ-2" value="" style="group" vertex="1" connectable="0" parent="9FflIbUXml1EknMBM2VQ-1">
          <mxGeometry width="215.92304845413264" height="190" as="geometry" />
        </mxCell>
        <mxCell id="9FflIbUXml1EknMBM2VQ-4" value="" style="pointerEvents=1;verticalLabelPosition=bottom;shadow=0;dashed=0;align=center;html=1;verticalAlign=top;shape=mxgraph.electrical.inductors.inductor_5;rotation=-30;fillColor=#ffe6cc;strokeColor=#d79b00;" vertex="1" parent="9FflIbUXml1EknMBM2VQ-2">
          <mxGeometry x="-4.53847577293368" y="141" width="120" height="14" as="geometry" />
        </mxCell>
        <mxCell id="9FflIbUXml1EknMBM2VQ-6" value="" style="pointerEvents=1;verticalLabelPosition=bottom;shadow=0;dashed=0;align=center;html=1;verticalAlign=top;shape=mxgraph.electrical.inductors.inductor_5;rotation=-90;fillColor=#ffe6cc;strokeColor=#d79b00;" vertex="1" parent="9FflIbUXml1EknMBM2VQ-2">
          <mxGeometry x="45.46152422706632" y="53" width="120" height="14" as="geometry" />
        </mxCell>
        <mxCell id="9FflIbUXml1EknMBM2VQ-8" value="" style="pointerEvents=1;verticalLabelPosition=bottom;shadow=0;dashed=0;align=center;html=1;verticalAlign=top;shape=mxgraph.electrical.inductors.inductor_5;rotation=30;fillColor=#ffe6cc;strokeColor=#d79b00;" vertex="1" parent="9FflIbUXml1EknMBM2VQ-2">
          <mxGeometry x="100.46152422706632" y="141" width="120" height="14" as="geometry" />
        </mxCell>
        <mxCell id="9FflIbUXml1EknMBM2VQ-9" value="A" style="text;html=1;align=center;verticalAlign=middle;resizable=0;points=[];autosize=1;strokeColor=none;fillColor=none;" vertex="1" parent="9FflIbUXml1EknMBM2VQ-2">
          <mxGeometry x="110.00152422706631" width="30" height="30" as="geometry" />
        </mxCell>
        <mxCell id="9FflIbUXml1EknMBM2VQ-10" value="B" style="text;html=1;align=center;verticalAlign=middle;resizable=0;points=[];autosize=1;strokeColor=none;fillColor=none;" vertex="1" parent="9FflIbUXml1EknMBM2VQ-2">
          <mxGeometry x="180.00152422706628" y="160" width="30" height="30" as="geometry" />
        </mxCell>
        <mxCell id="9FflIbUXml1EknMBM2VQ-11" value="C" style="text;html=1;align=center;verticalAlign=middle;resizable=0;points=[];autosize=1;strokeColor=none;fillColor=none;" vertex="1" parent="9FflIbUXml1EknMBM2VQ-2">
          <mxGeometry x="10.001524227066284" y="160" width="30" height="30" as="geometry" />
        </mxCell>
        <mxCell id="zA5wnCbWlJ3Z_S2fpOMz-1" value="" style="endArrow=block;html=1;rounded=0;endFill=1;fillColor=#e51400;strokeColor=#B20000;" edge="1" parent="9FflIbUXml1EknMBM2VQ-2">
          <mxGeometry width="50" height="50" relative="1" as="geometry">
            <mxPoint x="80" y="67" as="sourcePoint" />
            <mxPoint x="80" y="84" as="targetPoint" />
          </mxGeometry>
        </mxCell>
        <mxCell id="zA5wnCbWlJ3Z_S2fpOMz-2" value="" style="endArrow=block;html=1;rounded=0;endFill=1;fillColor=#e51400;strokeColor=#B20000;" edge="1" parent="9FflIbUXml1EknMBM2VQ-2">
          <mxGeometry width="50" height="50" relative="1" as="geometry">
            <mxPoint x="150" y="130" as="sourcePoint" />
            <mxPoint x="170" y="140" as="targetPoint" />
          </mxGeometry>
        </mxCell>
        <mxCell id="mzmchCLByOsyssmSeceM-1" value="" style="endArrow=none;html=1;rounded=0;strokeWidth=2;endFill=0;startArrow=block;startFill=1;" edge="1" parent="1">
          <mxGeometry width="50" height="50" relative="1" as="geometry">
            <mxPoint x="580" y="206" as="sourcePoint" />
            <mxPoint x="580" y="126" as="targetPoint" />
          </mxGeometry>
        </mxCell>
        <mxCell id="mzmchCLByOsyssmSeceM-2" value="" style="endArrow=block;html=1;rounded=0;strokeWidth=2;endFill=1;" edge="1" parent="1">
          <mxGeometry width="50" height="50" relative="1" as="geometry">
            <mxPoint x="580" y="206" as="sourcePoint" />
            <mxPoint x="660" y="246" as="targetPoint" />
          </mxGeometry>
        </mxCell>
        <mxCell id="mzmchCLByOsyssmSeceM-3" value="" style="endArrow=none;html=1;rounded=0;strokeWidth=2;" edge="1" parent="1">
          <mxGeometry width="50" height="50" relative="1" as="geometry">
            <mxPoint x="580" y="206" as="sourcePoint" />
            <mxPoint x="500" y="246" as="targetPoint" />
          </mxGeometry>
        </mxCell>
        <mxCell id="mzmchCLByOsyssmSeceM-4" value="A" style="text;html=1;align=center;verticalAlign=middle;resizable=0;points=[];autosize=1;strokeColor=none;fillColor=none;" vertex="1" parent="1">
          <mxGeometry x="550" y="124" width="30" height="30" as="geometry" />
        </mxCell>
        <mxCell id="mzmchCLByOsyssmSeceM-5" value="B" style="text;html=1;align=center;verticalAlign=middle;resizable=0;points=[];autosize=1;strokeColor=none;fillColor=none;" vertex="1" parent="1">
          <mxGeometry x="620" y="236" width="30" height="30" as="geometry" />
        </mxCell>
        <mxCell id="mzmchCLByOsyssmSeceM-6" value="C" style="text;html=1;align=center;verticalAlign=middle;resizable=0;points=[];autosize=1;strokeColor=none;fillColor=none;" vertex="1" parent="1">
          <mxGeometry x="510" y="236" width="30" height="30" as="geometry" />
        </mxCell>
        <mxCell id="mzmchCLByOsyssmSeceM-8" value="" style="endArrow=classic;html=1;rounded=0;strokeWidth=2;fillColor=#e51400;strokeColor=#FF0000;" edge="1" parent="1">
          <mxGeometry width="50" height="50" relative="1" as="geometry">
            <mxPoint x="580" y="124" as="sourcePoint" />
            <mxPoint x="660" y="246" as="targetPoint" />
          </mxGeometry>
        </mxCell>
        <mxCell id="mzmchCLByOsyssmSeceM-9" value="" style="shape=flexArrow;endArrow=classic;html=1;rounded=0;" edge="1" parent="1">
          <mxGeometry width="50" height="50" relative="1" as="geometry">
            <mxPoint x="350" y="194.5" as="sourcePoint" />
            <mxPoint x="440" y="194.5" as="targetPoint" />
          </mxGeometry>
        </mxCell>
        <mxCell id="mzmchCLByOsyssmSeceM-13" value="" style="group;rotation=-120;" vertex="1" connectable="0" parent="1">
          <mxGeometry x="610" y="160" width="80" height="20" as="geometry" />
        </mxCell>
        <mxCell id="mzmchCLByOsyssmSeceM-10" value="N" style="rounded=0;whiteSpace=wrap;html=1;fillColor=#FF0000;fontColor=#ffffff;strokeColor=#B20000;rotation=-120;" vertex="1" parent="mzmchCLByOsyssmSeceM-13">
          <mxGeometry x="30" y="17" width="40" height="20" as="geometry" />
        </mxCell>
        <mxCell id="mzmchCLByOsyssmSeceM-12" value="S" style="rounded=0;whiteSpace=wrap;html=1;rotation=-120;" vertex="1" parent="mzmchCLByOsyssmSeceM-13">
          <mxGeometry x="10" y="-17" width="40" height="20" as="geometry" />
        </mxCell>
      </root>
    </mxGraphModel>
  </diagram>
  <diagram id="oVcKwybU0iod81hhv0jn" name="AC 通电">
    <mxGraphModel dx="954" dy="558" grid="1" gridSize="10" guides="1" tooltips="1" connect="1" arrows="1" fold="1" page="1" pageScale="1" pageWidth="1169" pageHeight="827" math="0" shadow="0">
      <root>
        <mxCell id="0" />
        <mxCell id="1" parent="0" />
        <mxCell id="Qq6bmkbRPO39H8cADPJl-1" value="" style="group" vertex="1" connectable="0" parent="1">
          <mxGeometry x="170" y="100" width="215.92304845413264" height="190" as="geometry" />
        </mxCell>
        <mxCell id="Qq6bmkbRPO39H8cADPJl-2" value="" style="group" vertex="1" connectable="0" parent="Qq6bmkbRPO39H8cADPJl-1">
          <mxGeometry width="215.92304845413264" height="190" as="geometry" />
        </mxCell>
        <mxCell id="Qq6bmkbRPO39H8cADPJl-3" value="" style="pointerEvents=1;verticalLabelPosition=bottom;shadow=0;dashed=0;align=center;html=1;verticalAlign=top;shape=mxgraph.electrical.inductors.inductor_5;rotation=-30;fillColor=#ffe6cc;strokeColor=#d79b00;" vertex="1" parent="Qq6bmkbRPO39H8cADPJl-2">
          <mxGeometry x="-4.53847577293368" y="141" width="120" height="14" as="geometry" />
        </mxCell>
        <mxCell id="Qq6bmkbRPO39H8cADPJl-4" value="" style="pointerEvents=1;verticalLabelPosition=bottom;shadow=0;dashed=0;align=center;html=1;verticalAlign=top;shape=mxgraph.electrical.inductors.inductor_5;rotation=-90;fillColor=#ffe6cc;strokeColor=#d79b00;" vertex="1" parent="Qq6bmkbRPO39H8cADPJl-2">
          <mxGeometry x="45.46152422706632" y="53" width="120" height="14" as="geometry" />
        </mxCell>
        <mxCell id="Qq6bmkbRPO39H8cADPJl-5" value="" style="pointerEvents=1;verticalLabelPosition=bottom;shadow=0;dashed=0;align=center;html=1;verticalAlign=top;shape=mxgraph.electrical.inductors.inductor_5;rotation=30;fillColor=#ffe6cc;strokeColor=#d79b00;" vertex="1" parent="Qq6bmkbRPO39H8cADPJl-2">
          <mxGeometry x="100.46152422706632" y="141" width="120" height="14" as="geometry" />
        </mxCell>
        <mxCell id="Qq6bmkbRPO39H8cADPJl-6" value="A" style="text;html=1;align=center;verticalAlign=middle;resizable=0;points=[];autosize=1;strokeColor=none;fillColor=none;" vertex="1" parent="Qq6bmkbRPO39H8cADPJl-2">
          <mxGeometry x="110.00152422706631" width="30" height="30" as="geometry" />
        </mxCell>
        <mxCell id="Qq6bmkbRPO39H8cADPJl-7" value="B" style="text;html=1;align=center;verticalAlign=middle;resizable=0;points=[];autosize=1;strokeColor=none;fillColor=none;" vertex="1" parent="Qq6bmkbRPO39H8cADPJl-2">
          <mxGeometry x="180.00152422706628" y="160" width="30" height="30" as="geometry" />
        </mxCell>
        <mxCell id="Qq6bmkbRPO39H8cADPJl-8" value="C" style="text;html=1;align=center;verticalAlign=middle;resizable=0;points=[];autosize=1;strokeColor=none;fillColor=none;" vertex="1" parent="Qq6bmkbRPO39H8cADPJl-2">
          <mxGeometry x="10.001524227066284" y="160" width="30" height="30" as="geometry" />
        </mxCell>
        <mxCell id="1E2cEgGThnaD5kgVE6L--1" value="" style="endArrow=classic;html=1;rounded=0;strokeColor=#FF0000;" edge="1" parent="Qq6bmkbRPO39H8cADPJl-2">
          <mxGeometry width="50" height="50" relative="1" as="geometry">
            <mxPoint x="80" y="35" as="sourcePoint" />
            <mxPoint x="80" y="85" as="targetPoint" />
          </mxGeometry>
        </mxCell>
        <mxCell id="1E2cEgGThnaD5kgVE6L--2" value="" style="endArrow=classic;html=1;rounded=0;strokeColor=#FF0000;" edge="1" parent="Qq6bmkbRPO39H8cADPJl-2">
          <mxGeometry width="50" height="50" relative="1" as="geometry">
            <mxPoint x="50" y="100" as="sourcePoint" />
            <mxPoint x="10" y="130" as="targetPoint" />
          </mxGeometry>
        </mxCell>
        <mxCell id="Qq6bmkbRPO39H8cADPJl-11" value="" style="endArrow=none;html=1;rounded=0;strokeWidth=2;endFill=0;startArrow=block;startFill=1;" edge="1" parent="1">
          <mxGeometry width="50" height="50" relative="1" as="geometry">
            <mxPoint x="580" y="206" as="sourcePoint" />
            <mxPoint x="580" y="126" as="targetPoint" />
          </mxGeometry>
        </mxCell>
        <mxCell id="Qq6bmkbRPO39H8cADPJl-12" value="" style="endArrow=none;html=1;rounded=0;strokeWidth=2;endFill=0;" edge="1" parent="1">
          <mxGeometry width="50" height="50" relative="1" as="geometry">
            <mxPoint x="580" y="206" as="sourcePoint" />
            <mxPoint x="660" y="246" as="targetPoint" />
          </mxGeometry>
        </mxCell>
        <mxCell id="Qq6bmkbRPO39H8cADPJl-13" value="" style="endArrow=block;html=1;rounded=0;strokeWidth=2;startArrow=none;startFill=0;endFill=1;" edge="1" parent="1">
          <mxGeometry width="50" height="50" relative="1" as="geometry">
            <mxPoint x="580" y="206" as="sourcePoint" />
            <mxPoint x="500" y="246" as="targetPoint" />
          </mxGeometry>
        </mxCell>
        <mxCell id="Qq6bmkbRPO39H8cADPJl-14" value="A" style="text;html=1;align=center;verticalAlign=middle;resizable=0;points=[];autosize=1;strokeColor=none;fillColor=none;" vertex="1" parent="1">
          <mxGeometry x="550" y="110" width="30" height="30" as="geometry" />
        </mxCell>
        <mxCell id="Qq6bmkbRPO39H8cADPJl-15" value="B" style="text;html=1;align=center;verticalAlign=middle;resizable=0;points=[];autosize=1;strokeColor=none;fillColor=none;" vertex="1" parent="1">
          <mxGeometry x="620" y="236" width="30" height="30" as="geometry" />
        </mxCell>
        <mxCell id="Qq6bmkbRPO39H8cADPJl-16" value="C" style="text;html=1;align=center;verticalAlign=middle;resizable=0;points=[];autosize=1;strokeColor=none;fillColor=none;" vertex="1" parent="1">
          <mxGeometry x="510" y="236" width="30" height="30" as="geometry" />
        </mxCell>
        <mxCell id="Qq6bmkbRPO39H8cADPJl-17" value="" style="endArrow=classic;html=1;rounded=0;strokeWidth=2;fillColor=#e51400;strokeColor=#FF0000;" edge="1" parent="1">
          <mxGeometry width="50" height="50" relative="1" as="geometry">
            <mxPoint x="580" y="124" as="sourcePoint" />
            <mxPoint x="500" y="246" as="targetPoint" />
          </mxGeometry>
        </mxCell>
        <mxCell id="Qq6bmkbRPO39H8cADPJl-18" value="" style="shape=flexArrow;endArrow=classic;html=1;rounded=0;" edge="1" parent="1">
          <mxGeometry width="50" height="50" relative="1" as="geometry">
            <mxPoint x="350" y="194.5" as="sourcePoint" />
            <mxPoint x="440" y="194.5" as="targetPoint" />
          </mxGeometry>
        </mxCell>
        <mxCell id="Qq6bmkbRPO39H8cADPJl-19" value="" style="group;rotation=-55;" vertex="1" connectable="0" parent="1">
          <mxGeometry x="470" y="170" width="80" height="20" as="geometry" />
        </mxCell>
        <mxCell id="Qq6bmkbRPO39H8cADPJl-20" value="N" style="rounded=0;whiteSpace=wrap;html=1;fillColor=#FF0000;fontColor=#ffffff;strokeColor=#B20000;rotation=-55;" vertex="1" parent="Qq6bmkbRPO39H8cADPJl-19">
          <mxGeometry x="9" y="16" width="40" height="20" as="geometry" />
        </mxCell>
        <mxCell id="Qq6bmkbRPO39H8cADPJl-21" value="S" style="rounded=0;whiteSpace=wrap;html=1;rotation=-55;" vertex="1" parent="Qq6bmkbRPO39H8cADPJl-19">
          <mxGeometry x="31" y="-16" width="40" height="20" as="geometry" />
        </mxCell>
      </root>
    </mxGraphModel>
  </diagram>
  <diagram id="pc5UZeRLFV9K8bFgXbuv" name="BC 通电">
    <mxGraphModel dx="954" dy="558" grid="1" gridSize="10" guides="1" tooltips="1" connect="1" arrows="1" fold="1" page="1" pageScale="1" pageWidth="1169" pageHeight="827" math="0" shadow="0">
      <root>
        <mxCell id="0" />
        <mxCell id="1" parent="0" />
        <mxCell id="sXwXtUIjDRzcUnW8eQok-1" value="" style="group" vertex="1" connectable="0" parent="1">
          <mxGeometry x="170" y="100" width="215.92304845413264" height="190" as="geometry" />
        </mxCell>
        <mxCell id="sXwXtUIjDRzcUnW8eQok-2" value="" style="group" vertex="1" connectable="0" parent="sXwXtUIjDRzcUnW8eQok-1">
          <mxGeometry width="215.92304845413264" height="190" as="geometry" />
        </mxCell>
        <mxCell id="sXwXtUIjDRzcUnW8eQok-3" value="" style="pointerEvents=1;verticalLabelPosition=bottom;shadow=0;dashed=0;align=center;html=1;verticalAlign=top;shape=mxgraph.electrical.inductors.inductor_5;rotation=-30;fillColor=#ffe6cc;strokeColor=#d79b00;" vertex="1" parent="sXwXtUIjDRzcUnW8eQok-2">
          <mxGeometry x="-4.53847577293368" y="141" width="120" height="14" as="geometry" />
        </mxCell>
        <mxCell id="sXwXtUIjDRzcUnW8eQok-4" value="" style="pointerEvents=1;verticalLabelPosition=bottom;shadow=0;dashed=0;align=center;html=1;verticalAlign=top;shape=mxgraph.electrical.inductors.inductor_5;rotation=-90;fillColor=#ffe6cc;strokeColor=#d79b00;" vertex="1" parent="sXwXtUIjDRzcUnW8eQok-2">
          <mxGeometry x="45.46152422706632" y="53" width="120" height="14" as="geometry" />
        </mxCell>
        <mxCell id="sXwXtUIjDRzcUnW8eQok-5" value="" style="pointerEvents=1;verticalLabelPosition=bottom;shadow=0;dashed=0;align=center;html=1;verticalAlign=top;shape=mxgraph.electrical.inductors.inductor_5;rotation=30;fillColor=#ffe6cc;strokeColor=#d79b00;" vertex="1" parent="sXwXtUIjDRzcUnW8eQok-2">
          <mxGeometry x="100.46152422706632" y="141" width="120" height="14" as="geometry" />
        </mxCell>
        <mxCell id="sXwXtUIjDRzcUnW8eQok-6" value="A" style="text;html=1;align=center;verticalAlign=middle;resizable=0;points=[];autosize=1;strokeColor=none;fillColor=none;" vertex="1" parent="sXwXtUIjDRzcUnW8eQok-2">
          <mxGeometry x="110.00152422706631" width="30" height="30" as="geometry" />
        </mxCell>
        <mxCell id="sXwXtUIjDRzcUnW8eQok-7" value="B" style="text;html=1;align=center;verticalAlign=middle;resizable=0;points=[];autosize=1;strokeColor=none;fillColor=none;" vertex="1" parent="sXwXtUIjDRzcUnW8eQok-2">
          <mxGeometry x="180.00152422706628" y="160" width="30" height="30" as="geometry" />
        </mxCell>
        <mxCell id="sXwXtUIjDRzcUnW8eQok-8" value="C" style="text;html=1;align=center;verticalAlign=middle;resizable=0;points=[];autosize=1;strokeColor=none;fillColor=none;" vertex="1" parent="sXwXtUIjDRzcUnW8eQok-2">
          <mxGeometry x="10.001524227066284" y="160" width="30" height="30" as="geometry" />
        </mxCell>
        <mxCell id="sXwXtUIjDRzcUnW8eQok-9" value="" style="endArrow=none;html=1;rounded=0;strokeWidth=2;endFill=0;startArrow=none;startFill=0;" edge="1" parent="1">
          <mxGeometry width="50" height="50" relative="1" as="geometry">
            <mxPoint x="580" y="206" as="sourcePoint" />
            <mxPoint x="580" y="126" as="targetPoint" />
          </mxGeometry>
        </mxCell>
        <mxCell id="sXwXtUIjDRzcUnW8eQok-10" value="" style="endArrow=none;html=1;rounded=0;strokeWidth=2;endFill=0;startArrow=block;startFill=1;" edge="1" parent="1">
          <mxGeometry width="50" height="50" relative="1" as="geometry">
            <mxPoint x="580" y="206" as="sourcePoint" />
            <mxPoint x="660" y="246" as="targetPoint" />
          </mxGeometry>
        </mxCell>
        <mxCell id="sXwXtUIjDRzcUnW8eQok-11" value="" style="endArrow=block;html=1;rounded=0;strokeWidth=2;startArrow=none;startFill=0;endFill=1;" edge="1" parent="1">
          <mxGeometry width="50" height="50" relative="1" as="geometry">
            <mxPoint x="580" y="206" as="sourcePoint" />
            <mxPoint x="500" y="246" as="targetPoint" />
          </mxGeometry>
        </mxCell>
        <mxCell id="sXwXtUIjDRzcUnW8eQok-12" value="A" style="text;html=1;align=center;verticalAlign=middle;resizable=0;points=[];autosize=1;strokeColor=none;fillColor=none;" vertex="1" parent="1">
          <mxGeometry x="550" y="124" width="30" height="30" as="geometry" />
        </mxCell>
        <mxCell id="sXwXtUIjDRzcUnW8eQok-13" value="B" style="text;html=1;align=center;verticalAlign=middle;resizable=0;points=[];autosize=1;strokeColor=none;fillColor=none;" vertex="1" parent="1">
          <mxGeometry x="650" y="220" width="30" height="30" as="geometry" />
        </mxCell>
        <mxCell id="sXwXtUIjDRzcUnW8eQok-16" value="" style="shape=flexArrow;endArrow=classic;html=1;rounded=0;" edge="1" parent="1">
          <mxGeometry width="50" height="50" relative="1" as="geometry">
            <mxPoint x="350" y="194.5" as="sourcePoint" />
            <mxPoint x="440" y="194.5" as="targetPoint" />
          </mxGeometry>
        </mxCell>
        <mxCell id="sXwXtUIjDRzcUnW8eQok-17" value="" style="group;rotation=-179;" vertex="1" connectable="0" parent="1">
          <mxGeometry x="545" y="260" width="80" height="20" as="geometry" />
        </mxCell>
        <mxCell id="sXwXtUIjDRzcUnW8eQok-18" value="N" style="rounded=0;whiteSpace=wrap;html=1;fillColor=#FF0000;fontColor=#ffffff;strokeColor=#B20000;rotation=-359;" vertex="1" parent="sXwXtUIjDRzcUnW8eQok-17">
          <mxGeometry width="40" height="20" as="geometry" />
        </mxCell>
        <mxCell id="sXwXtUIjDRzcUnW8eQok-19" value="S" style="rounded=0;whiteSpace=wrap;html=1;rotation=-359;" vertex="1" parent="sXwXtUIjDRzcUnW8eQok-17">
          <mxGeometry x="40" width="40" height="20" as="geometry" />
        </mxCell>
        <mxCell id="GZ-XwjvnGKjjpVciy90x-1" value="" style="endArrow=none;html=1;rounded=0;endFill=0;fillColor=#e51400;strokeColor=#B20000;startArrow=block;startFill=1;" edge="1" parent="1">
          <mxGeometry width="50" height="50" relative="1" as="geometry">
            <mxPoint x="325" y="227" as="sourcePoint" />
            <mxPoint x="345" y="237" as="targetPoint" />
          </mxGeometry>
        </mxCell>
        <mxCell id="GZ-XwjvnGKjjpVciy90x-2" value="" style="endArrow=block;html=1;rounded=0;endFill=1;fillColor=#e51400;strokeColor=#B20000;" edge="1" parent="1">
          <mxGeometry width="50" height="50" relative="1" as="geometry">
            <mxPoint x="226" y="228" as="sourcePoint" />
            <mxPoint x="216" y="238" as="targetPoint" />
          </mxGeometry>
        </mxCell>
        <mxCell id="GZ-XwjvnGKjjpVciy90x-3" value="" style="endArrow=classic;html=1;rounded=0;strokeWidth=2;strokeColor=#FF0000;" edge="1" parent="1">
          <mxGeometry width="50" height="50" relative="1" as="geometry">
            <mxPoint x="660" y="247" as="sourcePoint" />
            <mxPoint x="500" y="248" as="targetPoint" />
          </mxGeometry>
        </mxCell>
        <mxCell id="GZ-XwjvnGKjjpVciy90x-4" value="C" style="text;html=1;align=center;verticalAlign=middle;resizable=0;points=[];autosize=1;strokeColor=none;fillColor=none;" vertex="1" parent="1">
          <mxGeometry x="485" y="208" width="30" height="30" as="geometry" />
        </mxCell>
      </root>
    </mxGraphModel>
  </diagram>
  <diagram id="nQPHEh_LbxCZGWpR4mcD" name="BA 通电">
    <mxGraphModel dx="954" dy="558" grid="0" gridSize="10" guides="1" tooltips="1" connect="1" arrows="1" fold="1" page="1" pageScale="1" pageWidth="1169" pageHeight="827" math="0" shadow="0">
      <root>
        <mxCell id="0" />
        <mxCell id="1" parent="0" />
        <mxCell id="SkMYkwL4kFRF45xpaXqc-1" value="" style="group" vertex="1" connectable="0" parent="1">
          <mxGeometry x="130" y="110" width="215.92304845413264" height="190" as="geometry" />
        </mxCell>
        <mxCell id="SkMYkwL4kFRF45xpaXqc-2" value="" style="group" vertex="1" connectable="0" parent="SkMYkwL4kFRF45xpaXqc-1">
          <mxGeometry width="215.92304845413264" height="190" as="geometry" />
        </mxCell>
        <mxCell id="SkMYkwL4kFRF45xpaXqc-3" value="" style="pointerEvents=1;verticalLabelPosition=bottom;shadow=0;dashed=0;align=center;html=1;verticalAlign=top;shape=mxgraph.electrical.inductors.inductor_5;rotation=-30;fillColor=#ffe6cc;strokeColor=#d79b00;" vertex="1" parent="SkMYkwL4kFRF45xpaXqc-2">
          <mxGeometry x="-4.53847577293368" y="141" width="120" height="14" as="geometry" />
        </mxCell>
        <mxCell id="SkMYkwL4kFRF45xpaXqc-4" value="" style="pointerEvents=1;verticalLabelPosition=bottom;shadow=0;dashed=0;align=center;html=1;verticalAlign=top;shape=mxgraph.electrical.inductors.inductor_5;rotation=-90;fillColor=#ffe6cc;strokeColor=#d79b00;" vertex="1" parent="SkMYkwL4kFRF45xpaXqc-2">
          <mxGeometry x="45.46152422706632" y="53" width="120" height="14" as="geometry" />
        </mxCell>
        <mxCell id="SkMYkwL4kFRF45xpaXqc-5" value="" style="pointerEvents=1;verticalLabelPosition=bottom;shadow=0;dashed=0;align=center;html=1;verticalAlign=top;shape=mxgraph.electrical.inductors.inductor_5;rotation=30;fillColor=#ffe6cc;strokeColor=#d79b00;" vertex="1" parent="SkMYkwL4kFRF45xpaXqc-2">
          <mxGeometry x="100.46152422706632" y="141" width="120" height="14" as="geometry" />
        </mxCell>
        <mxCell id="SkMYkwL4kFRF45xpaXqc-6" value="A" style="text;html=1;align=center;verticalAlign=middle;resizable=0;points=[];autosize=1;strokeColor=none;fillColor=none;" vertex="1" parent="SkMYkwL4kFRF45xpaXqc-2">
          <mxGeometry x="110.00152422706631" width="30" height="30" as="geometry" />
        </mxCell>
        <mxCell id="SkMYkwL4kFRF45xpaXqc-7" value="B" style="text;html=1;align=center;verticalAlign=middle;resizable=0;points=[];autosize=1;strokeColor=none;fillColor=none;" vertex="1" parent="SkMYkwL4kFRF45xpaXqc-2">
          <mxGeometry x="180.00152422706628" y="160" width="30" height="30" as="geometry" />
        </mxCell>
        <mxCell id="SkMYkwL4kFRF45xpaXqc-8" value="C" style="text;html=1;align=center;verticalAlign=middle;resizable=0;points=[];autosize=1;strokeColor=none;fillColor=none;" vertex="1" parent="SkMYkwL4kFRF45xpaXqc-2">
          <mxGeometry x="10.001524227066284" y="160" width="30" height="30" as="geometry" />
        </mxCell>
        <mxCell id="hGh0lzqJxgCiMkzHzaXW-1" value="" style="endArrow=classic;html=1;rounded=0;strokeColor=#FF0000;" edge="1" parent="SkMYkwL4kFRF45xpaXqc-2">
          <mxGeometry width="50" height="50" relative="1" as="geometry">
            <mxPoint x="210" y="150" as="sourcePoint" />
            <mxPoint x="165.45999999999998" y="120" as="targetPoint" />
          </mxGeometry>
        </mxCell>
        <mxCell id="hGh0lzqJxgCiMkzHzaXW-2" value="" style="endArrow=classic;html=1;rounded=0;strokeColor=#FF0000;" edge="1" parent="SkMYkwL4kFRF45xpaXqc-2">
          <mxGeometry width="50" height="50" relative="1" as="geometry">
            <mxPoint x="165.45999999999998" y="83" as="sourcePoint" />
            <mxPoint x="150" y="40" as="targetPoint" />
          </mxGeometry>
        </mxCell>
        <mxCell id="SkMYkwL4kFRF45xpaXqc-9" value="" style="endArrow=block;html=1;rounded=0;strokeWidth=2;endFill=1;startArrow=none;startFill=0;" edge="1" parent="1">
          <mxGeometry width="50" height="50" relative="1" as="geometry">
            <mxPoint x="540" y="216" as="sourcePoint" />
            <mxPoint x="540" y="136" as="targetPoint" />
          </mxGeometry>
        </mxCell>
        <mxCell id="SkMYkwL4kFRF45xpaXqc-10" value="" style="endArrow=none;html=1;rounded=0;strokeWidth=2;endFill=0;startArrow=block;startFill=1;" edge="1" parent="1">
          <mxGeometry width="50" height="50" relative="1" as="geometry">
            <mxPoint x="540" y="216" as="sourcePoint" />
            <mxPoint x="620" y="256" as="targetPoint" />
          </mxGeometry>
        </mxCell>
        <mxCell id="SkMYkwL4kFRF45xpaXqc-11" value="" style="endArrow=none;html=1;rounded=0;strokeWidth=2;startArrow=none;startFill=0;endFill=0;" edge="1" parent="1">
          <mxGeometry width="50" height="50" relative="1" as="geometry">
            <mxPoint x="540" y="216" as="sourcePoint" />
            <mxPoint x="460" y="256" as="targetPoint" />
          </mxGeometry>
        </mxCell>
        <mxCell id="SkMYkwL4kFRF45xpaXqc-12" value="A" style="text;html=1;align=center;verticalAlign=middle;resizable=0;points=[];autosize=1;strokeColor=none;fillColor=none;" vertex="1" parent="1">
          <mxGeometry x="510" y="134" width="30" height="30" as="geometry" />
        </mxCell>
        <mxCell id="SkMYkwL4kFRF45xpaXqc-13" value="B" style="text;html=1;align=center;verticalAlign=middle;resizable=0;points=[];autosize=1;strokeColor=none;fillColor=none;" vertex="1" parent="1">
          <mxGeometry x="610" y="230" width="30" height="30" as="geometry" />
        </mxCell>
        <mxCell id="SkMYkwL4kFRF45xpaXqc-14" value="" style="shape=flexArrow;endArrow=classic;html=1;rounded=0;" edge="1" parent="1">
          <mxGeometry width="50" height="50" relative="1" as="geometry">
            <mxPoint x="310" y="204.5" as="sourcePoint" />
            <mxPoint x="400" y="204.5" as="targetPoint" />
          </mxGeometry>
        </mxCell>
        <mxCell id="SkMYkwL4kFRF45xpaXqc-15" value="" style="group;rotation=-120;" vertex="1" connectable="0" parent="1">
          <mxGeometry x="580" y="170" width="80" height="20" as="geometry" />
        </mxCell>
        <mxCell id="SkMYkwL4kFRF45xpaXqc-16" value="N" style="rounded=0;whiteSpace=wrap;html=1;fillColor=#FF0000;fontColor=#ffffff;strokeColor=#B20000;rotation=60;" vertex="1" parent="SkMYkwL4kFRF45xpaXqc-15">
          <mxGeometry x="10" y="-17" width="40" height="20" as="geometry" />
        </mxCell>
        <mxCell id="SkMYkwL4kFRF45xpaXqc-17" value="S" style="rounded=0;whiteSpace=wrap;html=1;rotation=-300;" vertex="1" parent="SkMYkwL4kFRF45xpaXqc-15">
          <mxGeometry x="30" y="18" width="40" height="20" as="geometry" />
        </mxCell>
        <mxCell id="SkMYkwL4kFRF45xpaXqc-20" value="" style="endArrow=classic;html=1;rounded=0;strokeWidth=2;strokeColor=#FF0000;entryX=1;entryY=0;entryDx=0;entryDy=0;entryPerimeter=0;" edge="1" parent="1" target="SkMYkwL4kFRF45xpaXqc-12">
          <mxGeometry width="50" height="50" relative="1" as="geometry">
            <mxPoint x="620" y="257" as="sourcePoint" />
            <mxPoint x="460" y="258" as="targetPoint" />
          </mxGeometry>
        </mxCell>
        <mxCell id="SkMYkwL4kFRF45xpaXqc-21" value="C" style="text;html=1;align=center;verticalAlign=middle;resizable=0;points=[];autosize=1;strokeColor=none;fillColor=none;" vertex="1" parent="1">
          <mxGeometry x="445" y="218" width="30" height="30" as="geometry" />
        </mxCell>
      </root>
    </mxGraphModel>
  </diagram>
  <diagram id="-zYJalHcWvtfiuwIB5EE" name="CA 通电">
    <mxGraphModel dx="954" dy="558" grid="0" gridSize="10" guides="1" tooltips="1" connect="1" arrows="1" fold="1" page="1" pageScale="1" pageWidth="1169" pageHeight="827" math="0" shadow="0">
      <root>
        <mxCell id="0" />
        <mxCell id="1" parent="0" />
        <mxCell id="flCY0IGYsDcwDpIW1pN8-1" value="" style="group" vertex="1" connectable="0" parent="1">
          <mxGeometry x="160" y="160" width="215.92304845413264" height="190" as="geometry" />
        </mxCell>
        <mxCell id="flCY0IGYsDcwDpIW1pN8-2" value="" style="group" vertex="1" connectable="0" parent="flCY0IGYsDcwDpIW1pN8-1">
          <mxGeometry width="215.92304845413264" height="190" as="geometry" />
        </mxCell>
        <mxCell id="flCY0IGYsDcwDpIW1pN8-3" value="" style="pointerEvents=1;verticalLabelPosition=bottom;shadow=0;dashed=0;align=center;html=1;verticalAlign=top;shape=mxgraph.electrical.inductors.inductor_5;rotation=-30;fillColor=#ffe6cc;strokeColor=#d79b00;" vertex="1" parent="flCY0IGYsDcwDpIW1pN8-2">
          <mxGeometry x="-4.53847577293368" y="141" width="120" height="14" as="geometry" />
        </mxCell>
        <mxCell id="flCY0IGYsDcwDpIW1pN8-4" value="" style="pointerEvents=1;verticalLabelPosition=bottom;shadow=0;dashed=0;align=center;html=1;verticalAlign=top;shape=mxgraph.electrical.inductors.inductor_5;rotation=-90;fillColor=#ffe6cc;strokeColor=#d79b00;" vertex="1" parent="flCY0IGYsDcwDpIW1pN8-2">
          <mxGeometry x="45.46152422706632" y="53" width="120" height="14" as="geometry" />
        </mxCell>
        <mxCell id="flCY0IGYsDcwDpIW1pN8-5" value="" style="pointerEvents=1;verticalLabelPosition=bottom;shadow=0;dashed=0;align=center;html=1;verticalAlign=top;shape=mxgraph.electrical.inductors.inductor_5;rotation=30;fillColor=#ffe6cc;strokeColor=#d79b00;" vertex="1" parent="flCY0IGYsDcwDpIW1pN8-2">
          <mxGeometry x="100.46152422706632" y="141" width="120" height="14" as="geometry" />
        </mxCell>
        <mxCell id="flCY0IGYsDcwDpIW1pN8-6" value="A" style="text;html=1;align=center;verticalAlign=middle;resizable=0;points=[];autosize=1;strokeColor=none;fillColor=none;" vertex="1" parent="flCY0IGYsDcwDpIW1pN8-2">
          <mxGeometry x="110.00152422706631" width="30" height="30" as="geometry" />
        </mxCell>
        <mxCell id="flCY0IGYsDcwDpIW1pN8-7" value="B" style="text;html=1;align=center;verticalAlign=middle;resizable=0;points=[];autosize=1;strokeColor=none;fillColor=none;" vertex="1" parent="flCY0IGYsDcwDpIW1pN8-2">
          <mxGeometry x="180.00152422706628" y="160" width="30" height="30" as="geometry" />
        </mxCell>
        <mxCell id="flCY0IGYsDcwDpIW1pN8-8" value="C" style="text;html=1;align=center;verticalAlign=middle;resizable=0;points=[];autosize=1;strokeColor=none;fillColor=none;" vertex="1" parent="flCY0IGYsDcwDpIW1pN8-2">
          <mxGeometry x="10.001524227066284" y="160" width="30" height="30" as="geometry" />
        </mxCell>
        <mxCell id="flCY0IGYsDcwDpIW1pN8-9" value="" style="endArrow=block;html=1;rounded=0;strokeWidth=2;endFill=1;startArrow=none;startFill=0;" edge="1" parent="1">
          <mxGeometry width="50" height="50" relative="1" as="geometry">
            <mxPoint x="570" y="266" as="sourcePoint" />
            <mxPoint x="570" y="186" as="targetPoint" />
          </mxGeometry>
        </mxCell>
        <mxCell id="flCY0IGYsDcwDpIW1pN8-10" value="" style="endArrow=none;html=1;rounded=0;strokeWidth=2;endFill=0;startArrow=none;startFill=0;" edge="1" parent="1">
          <mxGeometry width="50" height="50" relative="1" as="geometry">
            <mxPoint x="570" y="266" as="sourcePoint" />
            <mxPoint x="650" y="306" as="targetPoint" />
          </mxGeometry>
        </mxCell>
        <mxCell id="flCY0IGYsDcwDpIW1pN8-11" value="" style="endArrow=none;html=1;rounded=0;strokeWidth=2;startArrow=block;startFill=1;endFill=0;" edge="1" parent="1">
          <mxGeometry width="50" height="50" relative="1" as="geometry">
            <mxPoint x="570" y="266" as="sourcePoint" />
            <mxPoint x="490" y="306" as="targetPoint" />
          </mxGeometry>
        </mxCell>
        <mxCell id="flCY0IGYsDcwDpIW1pN8-12" value="A" style="text;html=1;align=center;verticalAlign=middle;resizable=0;points=[];autosize=1;strokeColor=none;fillColor=none;" vertex="1" parent="1">
          <mxGeometry x="540" y="184" width="30" height="30" as="geometry" />
        </mxCell>
        <mxCell id="flCY0IGYsDcwDpIW1pN8-13" value="B" style="text;html=1;align=center;verticalAlign=middle;resizable=0;points=[];autosize=1;strokeColor=none;fillColor=none;" vertex="1" parent="1">
          <mxGeometry x="640" y="280" width="30" height="30" as="geometry" />
        </mxCell>
        <mxCell id="flCY0IGYsDcwDpIW1pN8-14" value="" style="shape=flexArrow;endArrow=classic;html=1;rounded=0;" edge="1" parent="1">
          <mxGeometry width="50" height="50" relative="1" as="geometry">
            <mxPoint x="340" y="254.5" as="sourcePoint" />
            <mxPoint x="430" y="254.5" as="targetPoint" />
          </mxGeometry>
        </mxCell>
        <mxCell id="flCY0IGYsDcwDpIW1pN8-15" value="" style="endArrow=block;html=1;rounded=0;endFill=1;fillColor=#e51400;strokeColor=#B20000;startArrow=none;startFill=0;" edge="1" parent="1">
          <mxGeometry width="50" height="50" relative="1" as="geometry">
            <mxPoint x="246" y="239" as="sourcePoint" />
            <mxPoint x="246" y="194" as="targetPoint" />
          </mxGeometry>
        </mxCell>
        <mxCell id="flCY0IGYsDcwDpIW1pN8-16" value="" style="endArrow=none;html=1;rounded=0;endFill=0;fillColor=#e51400;strokeColor=#B20000;startArrow=block;startFill=1;" edge="1" parent="1">
          <mxGeometry width="50" height="50" relative="1" as="geometry">
            <mxPoint x="216" y="288" as="sourcePoint" />
            <mxPoint x="206" y="298" as="targetPoint" />
          </mxGeometry>
        </mxCell>
        <mxCell id="flCY0IGYsDcwDpIW1pN8-17" value="" style="endArrow=none;html=1;rounded=0;strokeWidth=2;strokeColor=#FF0000;endFill=0;startArrow=block;startFill=1;exitX=0.933;exitY=0.333;exitDx=0;exitDy=0;exitPerimeter=0;" edge="1" parent="1" source="flCY0IGYsDcwDpIW1pN8-12">
          <mxGeometry width="50" height="50" relative="1" as="geometry">
            <mxPoint x="650" y="307" as="sourcePoint" />
            <mxPoint x="490" y="308" as="targetPoint" />
          </mxGeometry>
        </mxCell>
        <mxCell id="flCY0IGYsDcwDpIW1pN8-18" value="C" style="text;html=1;align=center;verticalAlign=middle;resizable=0;points=[];autosize=1;strokeColor=none;fillColor=none;" vertex="1" parent="1">
          <mxGeometry x="475" y="268" width="30" height="30" as="geometry" />
        </mxCell>
        <mxCell id="flCY0IGYsDcwDpIW1pN8-19" value="" style="group;rotation=-235;" vertex="1" connectable="0" parent="1">
          <mxGeometry x="459.9985220324993" y="220.00247491969043" width="80.34295593500133" height="21.69505016061919" as="geometry" />
        </mxCell>
        <mxCell id="flCY0IGYsDcwDpIW1pN8-20" value="N" style="rounded=0;whiteSpace=wrap;html=1;fillColor=#FF0000;fontColor=#ffffff;strokeColor=#B20000;rotation=-594;" vertex="1" parent="flCY0IGYsDcwDpIW1pN8-19">
          <mxGeometry x="31" y="-15" width="40" height="20" as="geometry" />
        </mxCell>
        <mxCell id="flCY0IGYsDcwDpIW1pN8-21" value="S" style="rounded=0;whiteSpace=wrap;html=1;rotation=-594;" vertex="1" parent="flCY0IGYsDcwDpIW1pN8-19">
          <mxGeometry x="8" y="17" width="40" height="20" as="geometry" />
        </mxCell>
      </root>
    </mxGraphModel>
  </diagram>
  <diagram id="nrU11aVrXiuFnu6KEqsY" name="CB 通电">
    <mxGraphModel dx="954" dy="558" grid="0" gridSize="10" guides="1" tooltips="1" connect="1" arrows="1" fold="1" page="1" pageScale="1" pageWidth="1169" pageHeight="827" math="0" shadow="0">
      <root>
        <mxCell id="0" />
        <mxCell id="1" parent="0" />
        <mxCell id="32P7Tdnrr9Rre2h1Z_GL-1" value="" style="group" parent="1" vertex="1" connectable="0">
          <mxGeometry x="170" y="100" width="215.92304845413264" height="190" as="geometry" />
        </mxCell>
        <mxCell id="32P7Tdnrr9Rre2h1Z_GL-2" value="" style="group" parent="32P7Tdnrr9Rre2h1Z_GL-1" vertex="1" connectable="0">
          <mxGeometry width="215.92304845413264" height="190" as="geometry" />
        </mxCell>
        <mxCell id="32P7Tdnrr9Rre2h1Z_GL-3" value="" style="pointerEvents=1;verticalLabelPosition=bottom;shadow=0;dashed=0;align=center;html=1;verticalAlign=top;shape=mxgraph.electrical.inductors.inductor_5;rotation=-30;fillColor=#ffe6cc;strokeColor=#d79b00;" parent="32P7Tdnrr9Rre2h1Z_GL-2" vertex="1">
          <mxGeometry x="-4.53847577293368" y="141" width="120" height="14" as="geometry" />
        </mxCell>
        <mxCell id="32P7Tdnrr9Rre2h1Z_GL-4" value="" style="pointerEvents=1;verticalLabelPosition=bottom;shadow=0;dashed=0;align=center;html=1;verticalAlign=top;shape=mxgraph.electrical.inductors.inductor_5;rotation=-90;fillColor=#ffe6cc;strokeColor=#d79b00;" parent="32P7Tdnrr9Rre2h1Z_GL-2" vertex="1">
          <mxGeometry x="45.46152422706632" y="53" width="120" height="14" as="geometry" />
        </mxCell>
        <mxCell id="32P7Tdnrr9Rre2h1Z_GL-5" value="" style="pointerEvents=1;verticalLabelPosition=bottom;shadow=0;dashed=0;align=center;html=1;verticalAlign=top;shape=mxgraph.electrical.inductors.inductor_5;rotation=30;fillColor=#ffe6cc;strokeColor=#d79b00;" parent="32P7Tdnrr9Rre2h1Z_GL-2" vertex="1">
          <mxGeometry x="100.46152422706632" y="141" width="120" height="14" as="geometry" />
        </mxCell>
        <mxCell id="32P7Tdnrr9Rre2h1Z_GL-6" value="A" style="text;html=1;align=center;verticalAlign=middle;resizable=0;points=[];autosize=1;strokeColor=none;fillColor=none;" parent="32P7Tdnrr9Rre2h1Z_GL-2" vertex="1">
          <mxGeometry x="110.00152422706631" width="30" height="30" as="geometry" />
        </mxCell>
        <mxCell id="32P7Tdnrr9Rre2h1Z_GL-7" value="B" style="text;html=1;align=center;verticalAlign=middle;resizable=0;points=[];autosize=1;strokeColor=none;fillColor=none;" parent="32P7Tdnrr9Rre2h1Z_GL-2" vertex="1">
          <mxGeometry x="180.00152422706628" y="160" width="30" height="30" as="geometry" />
        </mxCell>
        <mxCell id="32P7Tdnrr9Rre2h1Z_GL-8" value="C" style="text;html=1;align=center;verticalAlign=middle;resizable=0;points=[];autosize=1;strokeColor=none;fillColor=none;" parent="32P7Tdnrr9Rre2h1Z_GL-2" vertex="1">
          <mxGeometry x="10.001524227066284" y="160" width="30" height="30" as="geometry" />
        </mxCell>
        <mxCell id="32P7Tdnrr9Rre2h1Z_GL-9" value="" style="endArrow=none;html=1;rounded=0;strokeWidth=2;endFill=0;startArrow=none;startFill=0;" parent="1" edge="1">
          <mxGeometry width="50" height="50" relative="1" as="geometry">
            <mxPoint x="580" y="206" as="sourcePoint" />
            <mxPoint x="580" y="126" as="targetPoint" />
          </mxGeometry>
        </mxCell>
        <mxCell id="32P7Tdnrr9Rre2h1Z_GL-10" value="" style="endArrow=block;html=1;rounded=0;strokeWidth=2;endFill=1;startArrow=none;startFill=0;" parent="1" edge="1">
          <mxGeometry width="50" height="50" relative="1" as="geometry">
            <mxPoint x="580" y="206" as="sourcePoint" />
            <mxPoint x="660" y="246" as="targetPoint" />
          </mxGeometry>
        </mxCell>
        <mxCell id="32P7Tdnrr9Rre2h1Z_GL-11" value="" style="endArrow=none;html=1;rounded=0;strokeWidth=2;startArrow=block;startFill=1;endFill=0;" parent="1" edge="1">
          <mxGeometry width="50" height="50" relative="1" as="geometry">
            <mxPoint x="580" y="206" as="sourcePoint" />
            <mxPoint x="500" y="246" as="targetPoint" />
          </mxGeometry>
        </mxCell>
        <mxCell id="32P7Tdnrr9Rre2h1Z_GL-12" value="A" style="text;html=1;align=center;verticalAlign=middle;resizable=0;points=[];autosize=1;strokeColor=none;fillColor=none;" parent="1" vertex="1">
          <mxGeometry x="550" y="124" width="30" height="30" as="geometry" />
        </mxCell>
        <mxCell id="32P7Tdnrr9Rre2h1Z_GL-13" value="B" style="text;html=1;align=center;verticalAlign=middle;resizable=0;points=[];autosize=1;strokeColor=none;fillColor=none;" parent="1" vertex="1">
          <mxGeometry x="650" y="220" width="30" height="30" as="geometry" />
        </mxCell>
        <mxCell id="32P7Tdnrr9Rre2h1Z_GL-14" value="" style="shape=flexArrow;endArrow=classic;html=1;rounded=0;" parent="1" edge="1">
          <mxGeometry width="50" height="50" relative="1" as="geometry">
            <mxPoint x="350" y="194.5" as="sourcePoint" />
            <mxPoint x="440" y="194.5" as="targetPoint" />
          </mxGeometry>
        </mxCell>
        <mxCell id="32P7Tdnrr9Rre2h1Z_GL-18" value="" style="endArrow=block;html=1;rounded=0;endFill=1;fillColor=#e51400;strokeColor=#B20000;startArrow=none;startFill=0;" parent="1" edge="1">
          <mxGeometry width="50" height="50" relative="1" as="geometry">
            <mxPoint x="325" y="227" as="sourcePoint" />
            <mxPoint x="345" y="237" as="targetPoint" />
          </mxGeometry>
        </mxCell>
        <mxCell id="32P7Tdnrr9Rre2h1Z_GL-19" value="" style="endArrow=none;html=1;rounded=0;endFill=0;fillColor=#e51400;strokeColor=#B20000;startArrow=block;startFill=1;" parent="1" edge="1">
          <mxGeometry width="50" height="50" relative="1" as="geometry">
            <mxPoint x="226" y="228" as="sourcePoint" />
            <mxPoint x="216" y="238" as="targetPoint" />
          </mxGeometry>
        </mxCell>
        <mxCell id="32P7Tdnrr9Rre2h1Z_GL-20" value="" style="endArrow=none;html=1;rounded=0;strokeWidth=2;strokeColor=#FF0000;endFill=0;startArrow=block;startFill=1;" parent="1" edge="1">
          <mxGeometry width="50" height="50" relative="1" as="geometry">
            <mxPoint x="660" y="247" as="sourcePoint" />
            <mxPoint x="500" y="248" as="targetPoint" />
          </mxGeometry>
        </mxCell>
        <mxCell id="32P7Tdnrr9Rre2h1Z_GL-21" value="C" style="text;html=1;align=center;verticalAlign=middle;resizable=0;points=[];autosize=1;strokeColor=none;fillColor=none;" parent="1" vertex="1">
          <mxGeometry x="485" y="208" width="30" height="30" as="geometry" />
        </mxCell>
        <mxCell id="32P7Tdnrr9Rre2h1Z_GL-22" value="" style="group;rotation=-180;" parent="1" vertex="1" connectable="0">
          <mxGeometry x="543.9985220324993" y="260.0024749196904" width="80.34295593500133" height="21.69505016061919" as="geometry" />
        </mxCell>
        <mxCell id="32P7Tdnrr9Rre2h1Z_GL-16" value="N" style="rounded=0;whiteSpace=wrap;html=1;fillColor=#FF0000;fontColor=#ffffff;strokeColor=#B20000;rotation=-539;" parent="32P7Tdnrr9Rre2h1Z_GL-22" vertex="1">
          <mxGeometry x="40" y="1" width="40" height="20" as="geometry" />
        </mxCell>
        <mxCell id="32P7Tdnrr9Rre2h1Z_GL-17" value="S" style="rounded=0;whiteSpace=wrap;html=1;rotation=-539;" parent="32P7Tdnrr9Rre2h1Z_GL-22" vertex="1">
          <mxGeometry width="40" height="20" as="geometry" />
        </mxCell>
      </root>
    </mxGraphModel>
  </diagram>
  <diagram id="7iRh8g6s1jlCVAn5sxAh" name="六相">
    <mxGraphModel dx="954" dy="558" grid="0" gridSize="10" guides="1" tooltips="1" connect="1" arrows="1" fold="1" page="1" pageScale="1" pageWidth="1169" pageHeight="827" math="0" shadow="0">
      <root>
        <mxCell id="0" />
        <mxCell id="1" parent="0" />
        <mxCell id="5fIxEmM8E_6wQN-G-z0Y-1" value="" style="group;rotation=-120;" vertex="1" connectable="0" parent="1">
          <mxGeometry x="430.0002540378444" y="109.64101615137756" width="80" height="20" as="geometry" />
        </mxCell>
        <mxCell id="5fIxEmM8E_6wQN-G-z0Y-2" value="N" style="rounded=0;whiteSpace=wrap;html=1;fillColor=#FF0000;fontColor=#ffffff;strokeColor=#B20000;rotation=-120;" vertex="1" parent="5fIxEmM8E_6wQN-G-z0Y-1">
          <mxGeometry x="30" y="17" width="40" height="20" as="geometry" />
        </mxCell>
        <mxCell id="5fIxEmM8E_6wQN-G-z0Y-3" value="S" style="rounded=0;whiteSpace=wrap;html=1;rotation=-120;" vertex="1" parent="5fIxEmM8E_6wQN-G-z0Y-1">
          <mxGeometry x="10" y="-17" width="40" height="20" as="geometry" />
        </mxCell>
        <mxCell id="yfLXrporeiY-Qsf_N_id-1" value="" style="group;rotation=-55;" vertex="1" connectable="0" parent="1">
          <mxGeometry x="428.0045778969318" y="188.00184613507014" width="80" height="20" as="geometry" />
        </mxCell>
        <mxCell id="yfLXrporeiY-Qsf_N_id-2" value="N" style="rounded=0;whiteSpace=wrap;html=1;fillColor=#FF0000;fontColor=#ffffff;strokeColor=#B20000;rotation=-55;" vertex="1" parent="yfLXrporeiY-Qsf_N_id-1">
          <mxGeometry x="9" y="16" width="40" height="20" as="geometry" />
        </mxCell>
        <mxCell id="yfLXrporeiY-Qsf_N_id-3" value="S" style="rounded=0;whiteSpace=wrap;html=1;rotation=-55;" vertex="1" parent="yfLXrporeiY-Qsf_N_id-1">
          <mxGeometry x="31" y="-16" width="40" height="20" as="geometry" />
        </mxCell>
        <mxCell id="M9wQHSY5ZF_V1JX0BPBZ-1" value="" style="group;rotation=-179;" vertex="1" connectable="0" parent="1">
          <mxGeometry x="355.9984318706285" y="223.99657320905527" width="80" height="20" as="geometry" />
        </mxCell>
        <mxCell id="M9wQHSY5ZF_V1JX0BPBZ-2" value="N" style="rounded=0;whiteSpace=wrap;html=1;fillColor=#FF0000;fontColor=#ffffff;strokeColor=#B20000;rotation=-359;" vertex="1" parent="M9wQHSY5ZF_V1JX0BPBZ-1">
          <mxGeometry width="40" height="20" as="geometry" />
        </mxCell>
        <mxCell id="M9wQHSY5ZF_V1JX0BPBZ-3" value="S" style="rounded=0;whiteSpace=wrap;html=1;rotation=-359;" vertex="1" parent="M9wQHSY5ZF_V1JX0BPBZ-1">
          <mxGeometry x="40" y="1" width="40" height="20" as="geometry" />
        </mxCell>
        <mxCell id="Bl4p1fGItg6nntIM0_LU-1" value="" style="group;rotation=-120;" vertex="1" connectable="0" parent="1">
          <mxGeometry x="287.6602540378444" y="181.64101615137756" width="80" height="20" as="geometry" />
        </mxCell>
        <mxCell id="Bl4p1fGItg6nntIM0_LU-2" value="N" style="rounded=0;whiteSpace=wrap;html=1;fillColor=#FF0000;fontColor=#ffffff;strokeColor=#B20000;rotation=60;" vertex="1" parent="Bl4p1fGItg6nntIM0_LU-1">
          <mxGeometry x="10" y="-17" width="40" height="20" as="geometry" />
        </mxCell>
        <mxCell id="Bl4p1fGItg6nntIM0_LU-3" value="S" style="rounded=0;whiteSpace=wrap;html=1;rotation=-300;" vertex="1" parent="Bl4p1fGItg6nntIM0_LU-1">
          <mxGeometry x="30" y="18" width="40" height="20" as="geometry" />
        </mxCell>
        <mxCell id="rRarHnxO-hvu_q5w05hl-1" value="" style="group;rotation=-235;" vertex="1" connectable="0" parent="1">
          <mxGeometry x="290.75570755306467" y="103.28090799767133" width="80.34295593500133" height="21.69505016061919" as="geometry" />
        </mxCell>
        <mxCell id="rRarHnxO-hvu_q5w05hl-2" value="N" style="rounded=0;whiteSpace=wrap;html=1;fillColor=#FF0000;fontColor=#ffffff;strokeColor=#B20000;rotation=-594;" vertex="1" parent="rRarHnxO-hvu_q5w05hl-1">
          <mxGeometry x="31" y="-15" width="40" height="20" as="geometry" />
        </mxCell>
        <mxCell id="rRarHnxO-hvu_q5w05hl-3" value="S" style="rounded=0;whiteSpace=wrap;html=1;rotation=-594;" vertex="1" parent="rRarHnxO-hvu_q5w05hl-1">
          <mxGeometry x="8" y="17" width="40" height="20" as="geometry" />
        </mxCell>
        <mxCell id="qU2WDItOM0dbk8uwKT73-1" value="" style="group;rotation=-180;" vertex="1" connectable="0" parent="1">
          <mxGeometry x="362" y="69" width="80.34295593500133" height="21.69505016061919" as="geometry" />
        </mxCell>
        <mxCell id="qU2WDItOM0dbk8uwKT73-2" value="N" style="rounded=0;whiteSpace=wrap;html=1;fillColor=#FF0000;fontColor=#ffffff;strokeColor=#B20000;rotation=-539;" vertex="1" parent="qU2WDItOM0dbk8uwKT73-1">
          <mxGeometry x="40" y="1" width="40" height="20" as="geometry" />
        </mxCell>
        <mxCell id="qU2WDItOM0dbk8uwKT73-3" value="S" style="rounded=0;whiteSpace=wrap;html=1;rotation=-539;" vertex="1" parent="qU2WDItOM0dbk8uwKT73-1">
          <mxGeometry width="40" height="20" as="geometry" />
        </mxCell>
        <mxCell id="qU2WDItOM0dbk8uwKT73-4" value="AB" style="text;html=1;align=center;verticalAlign=middle;resizable=0;points=[];autosize=1;strokeColor=none;fillColor=none;" vertex="1" parent="1">
          <mxGeometry x="480" y="88" width="40" height="30" as="geometry" />
        </mxCell>
        <mxCell id="qU2WDItOM0dbk8uwKT73-5" value="AC" style="text;html=1;align=center;verticalAlign=middle;resizable=0;points=[];autosize=1;strokeColor=none;fillColor=none;" vertex="1" parent="1">
          <mxGeometry x="480" y="201.64" width="40" height="30" as="geometry" />
        </mxCell>
        <mxCell id="qU2WDItOM0dbk8uwKT73-6" value="BC" style="text;html=1;align=center;verticalAlign=middle;resizable=0;points=[];autosize=1;strokeColor=none;fillColor=none;" vertex="1" parent="1">
          <mxGeometry x="376" y="250" width="40" height="30" as="geometry" />
        </mxCell>
        <mxCell id="qU2WDItOM0dbk8uwKT73-7" value="BA" style="text;html=1;align=center;verticalAlign=middle;resizable=0;points=[];autosize=1;strokeColor=none;fillColor=none;" vertex="1" parent="1">
          <mxGeometry x="280" y="194" width="40" height="30" as="geometry" />
        </mxCell>
        <mxCell id="qU2WDItOM0dbk8uwKT73-8" value="CA" style="text;html=1;align=center;verticalAlign=middle;resizable=0;points=[];autosize=1;strokeColor=none;fillColor=none;" vertex="1" parent="1">
          <mxGeometry x="280" y="90.7" width="40" height="30" as="geometry" />
        </mxCell>
        <mxCell id="qU2WDItOM0dbk8uwKT73-9" value="CB" style="text;html=1;align=center;verticalAlign=middle;resizable=0;points=[];autosize=1;strokeColor=none;fillColor=none;" vertex="1" parent="1">
          <mxGeometry x="382.17" y="39" width="40" height="30" as="geometry" />
        </mxCell>
      </root>
    </mxGraphModel>
  </diagram>
  <diagram id="9INPI4wOyvcvQ43vJlBB" name="六相AB">
    <mxGraphModel dx="954" dy="558" grid="1" gridSize="10" guides="1" tooltips="1" connect="1" arrows="1" fold="1" page="1" pageScale="1" pageWidth="1169" pageHeight="827" math="0" shadow="1">
      <root>
        <mxCell id="0" />
        <mxCell id="1" parent="0" />
        <mxCell id="mLa9AedpWOfxPThYgzop-1" value="" style="group" vertex="1" connectable="0" parent="1">
          <mxGeometry x="42" y="54" width="215.92304845413264" height="190" as="geometry" />
        </mxCell>
        <mxCell id="mLa9AedpWOfxPThYgzop-2" value="" style="group" vertex="1" connectable="0" parent="mLa9AedpWOfxPThYgzop-1">
          <mxGeometry width="215.92304845413264" height="190" as="geometry" />
        </mxCell>
        <mxCell id="mLa9AedpWOfxPThYgzop-3" value="" style="pointerEvents=1;verticalLabelPosition=bottom;shadow=0;dashed=0;align=center;html=1;verticalAlign=top;shape=mxgraph.electrical.inductors.inductor_5;rotation=-30;fillColor=#ffe6cc;strokeColor=#d79b00;" vertex="1" parent="mLa9AedpWOfxPThYgzop-2">
          <mxGeometry x="-4.53847577293368" y="141" width="120" height="14" as="geometry" />
        </mxCell>
        <mxCell id="mLa9AedpWOfxPThYgzop-4" value="" style="pointerEvents=1;verticalLabelPosition=bottom;shadow=0;dashed=0;align=center;html=1;verticalAlign=top;shape=mxgraph.electrical.inductors.inductor_5;rotation=-90;fillColor=#ffe6cc;strokeColor=#d79b00;" vertex="1" parent="mLa9AedpWOfxPThYgzop-2">
          <mxGeometry x="45.46152422706632" y="52" width="120" height="14" as="geometry" />
        </mxCell>
        <mxCell id="mLa9AedpWOfxPThYgzop-5" value="" style="pointerEvents=1;verticalLabelPosition=bottom;shadow=0;dashed=0;align=center;html=1;verticalAlign=top;shape=mxgraph.electrical.inductors.inductor_5;rotation=30;fillColor=#ffe6cc;strokeColor=#d79b00;" vertex="1" parent="mLa9AedpWOfxPThYgzop-2">
          <mxGeometry x="100.46152422706632" y="140" width="120" height="14" as="geometry" />
        </mxCell>
        <mxCell id="mLa9AedpWOfxPThYgzop-6" value="A" style="text;html=1;align=center;verticalAlign=middle;resizable=0;points=[];autosize=1;strokeColor=none;fillColor=none;" vertex="1" parent="mLa9AedpWOfxPThYgzop-2">
          <mxGeometry x="110.00152422706631" y="-1" width="30" height="30" as="geometry" />
        </mxCell>
        <mxCell id="mLa9AedpWOfxPThYgzop-7" value="B" style="text;html=1;align=center;verticalAlign=middle;resizable=0;points=[];autosize=1;strokeColor=none;fillColor=none;" vertex="1" parent="mLa9AedpWOfxPThYgzop-2">
          <mxGeometry x="180.00152422706628" y="159" width="30" height="30" as="geometry" />
        </mxCell>
        <mxCell id="mLa9AedpWOfxPThYgzop-8" value="C" style="text;html=1;align=center;verticalAlign=middle;resizable=0;points=[];autosize=1;strokeColor=none;fillColor=none;" vertex="1" parent="mLa9AedpWOfxPThYgzop-2">
          <mxGeometry x="10.001524227066284" y="159" width="30" height="30" as="geometry" />
        </mxCell>
        <mxCell id="mLa9AedpWOfxPThYgzop-9" value="" style="endArrow=block;html=1;rounded=0;endFill=1;fillColor=#e51400;strokeColor=#B20000;" edge="1" parent="mLa9AedpWOfxPThYgzop-2">
          <mxGeometry width="50" height="50" relative="1" as="geometry">
            <mxPoint x="80" y="66" as="sourcePoint" />
            <mxPoint x="80" y="83" as="targetPoint" />
          </mxGeometry>
        </mxCell>
        <mxCell id="mLa9AedpWOfxPThYgzop-10" value="" style="endArrow=block;html=1;rounded=0;endFill=1;fillColor=#e51400;strokeColor=#B20000;" edge="1" parent="mLa9AedpWOfxPThYgzop-2">
          <mxGeometry width="50" height="50" relative="1" as="geometry">
            <mxPoint x="150" y="129" as="sourcePoint" />
            <mxPoint x="170" y="139" as="targetPoint" />
          </mxGeometry>
        </mxCell>
        <mxCell id="mLa9AedpWOfxPThYgzop-11" value="" style="endArrow=none;html=1;rounded=0;strokeWidth=2;endFill=0;startArrow=block;startFill=1;" edge="1" parent="1">
          <mxGeometry width="50" height="50" relative="1" as="geometry">
            <mxPoint x="360" y="175" as="sourcePoint" />
            <mxPoint x="360" y="95" as="targetPoint" />
          </mxGeometry>
        </mxCell>
        <mxCell id="mLa9AedpWOfxPThYgzop-12" value="" style="endArrow=block;html=1;rounded=0;strokeWidth=2;endFill=1;" edge="1" parent="1">
          <mxGeometry width="50" height="50" relative="1" as="geometry">
            <mxPoint x="360" y="175" as="sourcePoint" />
            <mxPoint x="440" y="215" as="targetPoint" />
          </mxGeometry>
        </mxCell>
        <mxCell id="mLa9AedpWOfxPThYgzop-13" value="" style="endArrow=none;html=1;rounded=0;strokeWidth=2;" edge="1" parent="1">
          <mxGeometry width="50" height="50" relative="1" as="geometry">
            <mxPoint x="360" y="175" as="sourcePoint" />
            <mxPoint x="280" y="215" as="targetPoint" />
          </mxGeometry>
        </mxCell>
        <mxCell id="mLa9AedpWOfxPThYgzop-14" value="A" style="text;html=1;align=center;verticalAlign=middle;resizable=0;points=[];autosize=1;strokeColor=none;fillColor=none;" vertex="1" parent="1">
          <mxGeometry x="330" y="93" width="30" height="30" as="geometry" />
        </mxCell>
        <mxCell id="mLa9AedpWOfxPThYgzop-15" value="B" style="text;html=1;align=center;verticalAlign=middle;resizable=0;points=[];autosize=1;strokeColor=none;fillColor=none;" vertex="1" parent="1">
          <mxGeometry x="400" y="205" width="30" height="30" as="geometry" />
        </mxCell>
        <mxCell id="mLa9AedpWOfxPThYgzop-16" value="C" style="text;html=1;align=center;verticalAlign=middle;resizable=0;points=[];autosize=1;strokeColor=none;fillColor=none;" vertex="1" parent="1">
          <mxGeometry x="290" y="205" width="30" height="30" as="geometry" />
        </mxCell>
        <mxCell id="mLa9AedpWOfxPThYgzop-17" value="" style="endArrow=classic;html=1;rounded=0;strokeWidth=2;fillColor=#e51400;strokeColor=#FF0000;" edge="1" parent="1">
          <mxGeometry width="50" height="50" relative="1" as="geometry">
            <mxPoint x="360" y="93" as="sourcePoint" />
            <mxPoint x="440" y="215" as="targetPoint" />
          </mxGeometry>
        </mxCell>
        <mxCell id="mLa9AedpWOfxPThYgzop-18" value="" style="shape=flexArrow;endArrow=classic;html=1;rounded=0;" edge="1" parent="1">
          <mxGeometry width="50" height="50" relative="1" as="geometry">
            <mxPoint x="203" y="147.5" as="sourcePoint" />
            <mxPoint x="293" y="147.5" as="targetPoint" />
          </mxGeometry>
        </mxCell>
        <mxCell id="mLa9AedpWOfxPThYgzop-19" value="" style="group;rotation=-120;" vertex="1" connectable="0" parent="1">
          <mxGeometry x="390" y="129" width="80" height="20" as="geometry" />
        </mxCell>
        <mxCell id="mLa9AedpWOfxPThYgzop-20" value="N" style="rounded=0;whiteSpace=wrap;html=1;fillColor=#FF0000;fontColor=#ffffff;strokeColor=#B20000;rotation=-120;" vertex="1" parent="mLa9AedpWOfxPThYgzop-19">
          <mxGeometry x="30" y="17" width="40" height="20" as="geometry" />
        </mxCell>
        <mxCell id="mLa9AedpWOfxPThYgzop-21" value="S" style="rounded=0;whiteSpace=wrap;html=1;rotation=-120;" vertex="1" parent="mLa9AedpWOfxPThYgzop-19">
          <mxGeometry x="10" y="-17" width="40" height="20" as="geometry" />
        </mxCell>
        <mxCell id="5wS7Py5ZjILQ2toIgH_B-1" value="" style="group" vertex="1" connectable="0" parent="1">
          <mxGeometry x="521" y="50" width="215.92304845413264" height="190" as="geometry" />
        </mxCell>
        <mxCell id="5wS7Py5ZjILQ2toIgH_B-2" value="" style="group" vertex="1" connectable="0" parent="5wS7Py5ZjILQ2toIgH_B-1">
          <mxGeometry width="215.92304845413264" height="190" as="geometry" />
        </mxCell>
        <mxCell id="5wS7Py5ZjILQ2toIgH_B-3" value="" style="pointerEvents=1;verticalLabelPosition=bottom;shadow=0;dashed=0;align=center;html=1;verticalAlign=top;shape=mxgraph.electrical.inductors.inductor_5;rotation=-30;fillColor=#ffe6cc;strokeColor=#d79b00;" vertex="1" parent="5wS7Py5ZjILQ2toIgH_B-2">
          <mxGeometry x="-4.53847577293368" y="141" width="120" height="14" as="geometry" />
        </mxCell>
        <mxCell id="5wS7Py5ZjILQ2toIgH_B-4" value="" style="pointerEvents=1;verticalLabelPosition=bottom;shadow=0;dashed=0;align=center;html=1;verticalAlign=top;shape=mxgraph.electrical.inductors.inductor_5;rotation=-90;fillColor=#ffe6cc;strokeColor=#d79b00;" vertex="1" parent="5wS7Py5ZjILQ2toIgH_B-2">
          <mxGeometry x="45.46152422706632" y="53" width="120" height="14" as="geometry" />
        </mxCell>
        <mxCell id="5wS7Py5ZjILQ2toIgH_B-5" value="" style="pointerEvents=1;verticalLabelPosition=bottom;shadow=0;dashed=0;align=center;html=1;verticalAlign=top;shape=mxgraph.electrical.inductors.inductor_5;rotation=30;fillColor=#ffe6cc;strokeColor=#d79b00;" vertex="1" parent="5wS7Py5ZjILQ2toIgH_B-2">
          <mxGeometry x="100.46152422706632" y="141" width="120" height="14" as="geometry" />
        </mxCell>
        <mxCell id="5wS7Py5ZjILQ2toIgH_B-6" value="A" style="text;html=1;align=center;verticalAlign=middle;resizable=0;points=[];autosize=1;strokeColor=none;fillColor=none;" vertex="1" parent="5wS7Py5ZjILQ2toIgH_B-2">
          <mxGeometry x="110.00152422706631" width="30" height="30" as="geometry" />
        </mxCell>
        <mxCell id="5wS7Py5ZjILQ2toIgH_B-7" value="B" style="text;html=1;align=center;verticalAlign=middle;resizable=0;points=[];autosize=1;strokeColor=none;fillColor=none;" vertex="1" parent="5wS7Py5ZjILQ2toIgH_B-2">
          <mxGeometry x="180.00152422706628" y="160" width="30" height="30" as="geometry" />
        </mxCell>
        <mxCell id="5wS7Py5ZjILQ2toIgH_B-8" value="C" style="text;html=1;align=center;verticalAlign=middle;resizable=0;points=[];autosize=1;strokeColor=none;fillColor=none;" vertex="1" parent="5wS7Py5ZjILQ2toIgH_B-2">
          <mxGeometry x="10.001524227066284" y="160" width="30" height="30" as="geometry" />
        </mxCell>
        <mxCell id="5wS7Py5ZjILQ2toIgH_B-9" value="" style="endArrow=classic;html=1;rounded=0;strokeColor=#FF0000;" edge="1" parent="5wS7Py5ZjILQ2toIgH_B-2">
          <mxGeometry width="50" height="50" relative="1" as="geometry">
            <mxPoint x="80" y="35" as="sourcePoint" />
            <mxPoint x="80" y="85" as="targetPoint" />
          </mxGeometry>
        </mxCell>
        <mxCell id="5wS7Py5ZjILQ2toIgH_B-10" value="" style="endArrow=classic;html=1;rounded=0;strokeColor=#FF0000;" edge="1" parent="5wS7Py5ZjILQ2toIgH_B-2">
          <mxGeometry width="50" height="50" relative="1" as="geometry">
            <mxPoint x="50" y="100" as="sourcePoint" />
            <mxPoint x="10" y="130" as="targetPoint" />
          </mxGeometry>
        </mxCell>
        <mxCell id="5wS7Py5ZjILQ2toIgH_B-11" value="" style="endArrow=none;html=1;rounded=0;strokeWidth=2;endFill=0;startArrow=block;startFill=1;" edge="1" parent="1">
          <mxGeometry width="50" height="50" relative="1" as="geometry">
            <mxPoint x="840" y="176" as="sourcePoint" />
            <mxPoint x="840" y="96" as="targetPoint" />
          </mxGeometry>
        </mxCell>
        <mxCell id="5wS7Py5ZjILQ2toIgH_B-12" value="" style="endArrow=none;html=1;rounded=0;strokeWidth=2;endFill=0;" edge="1" parent="1">
          <mxGeometry width="50" height="50" relative="1" as="geometry">
            <mxPoint x="840" y="176" as="sourcePoint" />
            <mxPoint x="920" y="216" as="targetPoint" />
          </mxGeometry>
        </mxCell>
        <mxCell id="5wS7Py5ZjILQ2toIgH_B-13" value="" style="endArrow=block;html=1;rounded=0;strokeWidth=2;startArrow=none;startFill=0;endFill=1;" edge="1" parent="1">
          <mxGeometry width="50" height="50" relative="1" as="geometry">
            <mxPoint x="840" y="176" as="sourcePoint" />
            <mxPoint x="760" y="216" as="targetPoint" />
          </mxGeometry>
        </mxCell>
        <mxCell id="5wS7Py5ZjILQ2toIgH_B-14" value="A" style="text;html=1;align=center;verticalAlign=middle;resizable=0;points=[];autosize=1;strokeColor=none;fillColor=none;" vertex="1" parent="1">
          <mxGeometry x="810" y="80" width="30" height="30" as="geometry" />
        </mxCell>
        <mxCell id="5wS7Py5ZjILQ2toIgH_B-15" value="B" style="text;html=1;align=center;verticalAlign=middle;resizable=0;points=[];autosize=1;strokeColor=none;fillColor=none;" vertex="1" parent="1">
          <mxGeometry x="880" y="206" width="30" height="30" as="geometry" />
        </mxCell>
        <mxCell id="5wS7Py5ZjILQ2toIgH_B-16" value="C" style="text;html=1;align=center;verticalAlign=middle;resizable=0;points=[];autosize=1;strokeColor=none;fillColor=none;" vertex="1" parent="1">
          <mxGeometry x="770" y="206" width="30" height="30" as="geometry" />
        </mxCell>
        <mxCell id="5wS7Py5ZjILQ2toIgH_B-17" value="" style="endArrow=classic;html=1;rounded=0;strokeWidth=2;fillColor=#e51400;strokeColor=#FF0000;" edge="1" parent="1">
          <mxGeometry width="50" height="50" relative="1" as="geometry">
            <mxPoint x="840" y="94" as="sourcePoint" />
            <mxPoint x="760" y="216" as="targetPoint" />
          </mxGeometry>
        </mxCell>
        <mxCell id="5wS7Py5ZjILQ2toIgH_B-18" value="" style="shape=flexArrow;endArrow=classic;html=1;rounded=0;" edge="1" parent="1">
          <mxGeometry width="50" height="50" relative="1" as="geometry">
            <mxPoint x="667" y="144.5" as="sourcePoint" />
            <mxPoint x="757" y="144.5" as="targetPoint" />
          </mxGeometry>
        </mxCell>
        <mxCell id="5wS7Py5ZjILQ2toIgH_B-19" value="" style="group;rotation=-55;" vertex="1" connectable="0" parent="1">
          <mxGeometry x="730" y="140" width="80" height="20" as="geometry" />
        </mxCell>
        <mxCell id="5wS7Py5ZjILQ2toIgH_B-20" value="N" style="rounded=0;whiteSpace=wrap;html=1;fillColor=#FF0000;fontColor=#ffffff;strokeColor=#B20000;rotation=-55;" vertex="1" parent="5wS7Py5ZjILQ2toIgH_B-19">
          <mxGeometry x="9" y="16" width="40" height="20" as="geometry" />
        </mxCell>
        <mxCell id="5wS7Py5ZjILQ2toIgH_B-21" value="S" style="rounded=0;whiteSpace=wrap;html=1;rotation=-55;" vertex="1" parent="5wS7Py5ZjILQ2toIgH_B-19">
          <mxGeometry x="31" y="-16" width="40" height="20" as="geometry" />
        </mxCell>
        <mxCell id="hQeba_EJMGPNn2It17dD-1" value="" style="group" vertex="1" connectable="0" parent="1">
          <mxGeometry x="41" y="281" width="215.92304845413264" height="190" as="geometry" />
        </mxCell>
        <mxCell id="hQeba_EJMGPNn2It17dD-2" value="" style="group" vertex="1" connectable="0" parent="hQeba_EJMGPNn2It17dD-1">
          <mxGeometry width="215.92304845413264" height="190" as="geometry" />
        </mxCell>
        <mxCell id="hQeba_EJMGPNn2It17dD-3" value="" style="pointerEvents=1;verticalLabelPosition=bottom;shadow=0;dashed=0;align=center;html=1;verticalAlign=top;shape=mxgraph.electrical.inductors.inductor_5;rotation=-30;fillColor=#ffe6cc;strokeColor=#d79b00;" vertex="1" parent="hQeba_EJMGPNn2It17dD-2">
          <mxGeometry x="-4.53847577293368" y="141" width="120" height="14" as="geometry" />
        </mxCell>
        <mxCell id="hQeba_EJMGPNn2It17dD-4" value="" style="pointerEvents=1;verticalLabelPosition=bottom;shadow=0;dashed=0;align=center;html=1;verticalAlign=top;shape=mxgraph.electrical.inductors.inductor_5;rotation=-90;fillColor=#ffe6cc;strokeColor=#d79b00;" vertex="1" parent="hQeba_EJMGPNn2It17dD-2">
          <mxGeometry x="45.46152422706632" y="52" width="120" height="14" as="geometry" />
        </mxCell>
        <mxCell id="hQeba_EJMGPNn2It17dD-5" value="" style="pointerEvents=1;verticalLabelPosition=bottom;shadow=0;dashed=0;align=center;html=1;verticalAlign=top;shape=mxgraph.electrical.inductors.inductor_5;rotation=30;fillColor=#ffe6cc;strokeColor=#d79b00;" vertex="1" parent="hQeba_EJMGPNn2It17dD-2">
          <mxGeometry x="100.46152422706632" y="140" width="120" height="14" as="geometry" />
        </mxCell>
        <mxCell id="hQeba_EJMGPNn2It17dD-6" value="A" style="text;html=1;align=center;verticalAlign=middle;resizable=0;points=[];autosize=1;strokeColor=none;fillColor=none;" vertex="1" parent="hQeba_EJMGPNn2It17dD-2">
          <mxGeometry x="110.00152422706631" y="-1" width="30" height="30" as="geometry" />
        </mxCell>
        <mxCell id="hQeba_EJMGPNn2It17dD-7" value="B" style="text;html=1;align=center;verticalAlign=middle;resizable=0;points=[];autosize=1;strokeColor=none;fillColor=none;" vertex="1" parent="hQeba_EJMGPNn2It17dD-2">
          <mxGeometry x="180.00152422706628" y="159" width="30" height="30" as="geometry" />
        </mxCell>
        <mxCell id="hQeba_EJMGPNn2It17dD-8" value="C" style="text;html=1;align=center;verticalAlign=middle;resizable=0;points=[];autosize=1;strokeColor=none;fillColor=none;" vertex="1" parent="hQeba_EJMGPNn2It17dD-2">
          <mxGeometry x="10.001524227066284" y="159" width="30" height="30" as="geometry" />
        </mxCell>
        <mxCell id="hQeba_EJMGPNn2It17dD-9" value="" style="endArrow=none;html=1;rounded=0;strokeWidth=2;endFill=0;startArrow=none;startFill=0;" edge="1" parent="1">
          <mxGeometry width="50" height="50" relative="1" as="geometry">
            <mxPoint x="360" y="396" as="sourcePoint" />
            <mxPoint x="360" y="316" as="targetPoint" />
          </mxGeometry>
        </mxCell>
        <mxCell id="hQeba_EJMGPNn2It17dD-10" value="" style="endArrow=none;html=1;rounded=0;strokeWidth=2;endFill=0;startArrow=block;startFill=1;" edge="1" parent="1">
          <mxGeometry width="50" height="50" relative="1" as="geometry">
            <mxPoint x="360" y="396" as="sourcePoint" />
            <mxPoint x="440" y="436" as="targetPoint" />
          </mxGeometry>
        </mxCell>
        <mxCell id="hQeba_EJMGPNn2It17dD-11" value="" style="endArrow=block;html=1;rounded=0;strokeWidth=2;startArrow=none;startFill=0;endFill=1;" edge="1" parent="1">
          <mxGeometry width="50" height="50" relative="1" as="geometry">
            <mxPoint x="360" y="396" as="sourcePoint" />
            <mxPoint x="280" y="436" as="targetPoint" />
          </mxGeometry>
        </mxCell>
        <mxCell id="hQeba_EJMGPNn2It17dD-12" value="A" style="text;html=1;align=center;verticalAlign=middle;resizable=0;points=[];autosize=1;strokeColor=none;fillColor=none;" vertex="1" parent="1">
          <mxGeometry x="330" y="314" width="30" height="30" as="geometry" />
        </mxCell>
        <mxCell id="hQeba_EJMGPNn2It17dD-13" value="B" style="text;html=1;align=center;verticalAlign=middle;resizable=0;points=[];autosize=1;strokeColor=none;fillColor=none;" vertex="1" parent="1">
          <mxGeometry x="430" y="410" width="30" height="30" as="geometry" />
        </mxCell>
        <mxCell id="hQeba_EJMGPNn2It17dD-14" value="" style="shape=flexArrow;endArrow=classic;html=1;rounded=0;" edge="1" parent="1">
          <mxGeometry width="50" height="50" relative="1" as="geometry">
            <mxPoint x="211" y="374.5" as="sourcePoint" />
            <mxPoint x="301" y="374.5" as="targetPoint" />
          </mxGeometry>
        </mxCell>
        <mxCell id="hQeba_EJMGPNn2It17dD-15" value="" style="group;rotation=-179;" vertex="1" connectable="0" parent="1">
          <mxGeometry x="325" y="450" width="80" height="20" as="geometry" />
        </mxCell>
        <mxCell id="hQeba_EJMGPNn2It17dD-16" value="N" style="rounded=0;whiteSpace=wrap;html=1;fillColor=#FF0000;fontColor=#ffffff;strokeColor=#B20000;rotation=-359;" vertex="1" parent="hQeba_EJMGPNn2It17dD-15">
          <mxGeometry width="40" height="20" as="geometry" />
        </mxCell>
        <mxCell id="hQeba_EJMGPNn2It17dD-17" value="S" style="rounded=0;whiteSpace=wrap;html=1;rotation=-359;" vertex="1" parent="hQeba_EJMGPNn2It17dD-15">
          <mxGeometry x="40" width="40" height="20" as="geometry" />
        </mxCell>
        <mxCell id="hQeba_EJMGPNn2It17dD-18" value="" style="endArrow=none;html=1;rounded=0;endFill=0;fillColor=#e51400;strokeColor=#B20000;startArrow=block;startFill=1;" edge="1" parent="1">
          <mxGeometry width="50" height="50" relative="1" as="geometry">
            <mxPoint x="196" y="407" as="sourcePoint" />
            <mxPoint x="216" y="417" as="targetPoint" />
          </mxGeometry>
        </mxCell>
        <mxCell id="hQeba_EJMGPNn2It17dD-19" value="" style="endArrow=block;html=1;rounded=0;endFill=1;fillColor=#e51400;strokeColor=#B20000;" edge="1" parent="1">
          <mxGeometry width="50" height="50" relative="1" as="geometry">
            <mxPoint x="97" y="408" as="sourcePoint" />
            <mxPoint x="87" y="418" as="targetPoint" />
          </mxGeometry>
        </mxCell>
        <mxCell id="hQeba_EJMGPNn2It17dD-20" value="" style="endArrow=classic;html=1;rounded=0;strokeWidth=2;strokeColor=#FF0000;" edge="1" parent="1">
          <mxGeometry width="50" height="50" relative="1" as="geometry">
            <mxPoint x="440" y="437" as="sourcePoint" />
            <mxPoint x="280" y="438" as="targetPoint" />
          </mxGeometry>
        </mxCell>
        <mxCell id="hQeba_EJMGPNn2It17dD-21" value="C" style="text;html=1;align=center;verticalAlign=middle;resizable=0;points=[];autosize=1;strokeColor=none;fillColor=none;" vertex="1" parent="1">
          <mxGeometry x="265" y="398" width="30" height="30" as="geometry" />
        </mxCell>
        <mxCell id="dcA5H87NYggEzzWNYhaF-1" value="" style="group" vertex="1" connectable="0" parent="1">
          <mxGeometry x="519" y="281" width="215.92304845413264" height="190" as="geometry" />
        </mxCell>
        <mxCell id="dcA5H87NYggEzzWNYhaF-2" value="" style="group" vertex="1" connectable="0" parent="dcA5H87NYggEzzWNYhaF-1">
          <mxGeometry width="215.92304845413264" height="190" as="geometry" />
        </mxCell>
        <mxCell id="dcA5H87NYggEzzWNYhaF-3" value="" style="pointerEvents=1;verticalLabelPosition=bottom;shadow=0;dashed=0;align=center;html=1;verticalAlign=top;shape=mxgraph.electrical.inductors.inductor_5;rotation=-30;fillColor=#ffe6cc;strokeColor=#d79b00;" vertex="1" parent="dcA5H87NYggEzzWNYhaF-2">
          <mxGeometry x="-4.53847577293368" y="141" width="120" height="14" as="geometry" />
        </mxCell>
        <mxCell id="dcA5H87NYggEzzWNYhaF-4" value="" style="pointerEvents=1;verticalLabelPosition=bottom;shadow=0;dashed=0;align=center;html=1;verticalAlign=top;shape=mxgraph.electrical.inductors.inductor_5;rotation=-90;fillColor=#ffe6cc;strokeColor=#d79b00;" vertex="1" parent="dcA5H87NYggEzzWNYhaF-2">
          <mxGeometry x="45.46152422706632" y="53" width="120" height="14" as="geometry" />
        </mxCell>
        <mxCell id="dcA5H87NYggEzzWNYhaF-5" value="" style="pointerEvents=1;verticalLabelPosition=bottom;shadow=0;dashed=0;align=center;html=1;verticalAlign=top;shape=mxgraph.electrical.inductors.inductor_5;rotation=30;fillColor=#ffe6cc;strokeColor=#d79b00;" vertex="1" parent="dcA5H87NYggEzzWNYhaF-2">
          <mxGeometry x="100.46152422706632" y="141" width="120" height="14" as="geometry" />
        </mxCell>
        <mxCell id="dcA5H87NYggEzzWNYhaF-6" value="A" style="text;html=1;align=center;verticalAlign=middle;resizable=0;points=[];autosize=1;strokeColor=none;fillColor=none;" vertex="1" parent="dcA5H87NYggEzzWNYhaF-2">
          <mxGeometry x="110.00152422706631" width="30" height="30" as="geometry" />
        </mxCell>
        <mxCell id="dcA5H87NYggEzzWNYhaF-7" value="B" style="text;html=1;align=center;verticalAlign=middle;resizable=0;points=[];autosize=1;strokeColor=none;fillColor=none;" vertex="1" parent="dcA5H87NYggEzzWNYhaF-2">
          <mxGeometry x="180.00152422706628" y="160" width="30" height="30" as="geometry" />
        </mxCell>
        <mxCell id="dcA5H87NYggEzzWNYhaF-8" value="C" style="text;html=1;align=center;verticalAlign=middle;resizable=0;points=[];autosize=1;strokeColor=none;fillColor=none;" vertex="1" parent="dcA5H87NYggEzzWNYhaF-2">
          <mxGeometry x="10.001524227066284" y="160" width="30" height="30" as="geometry" />
        </mxCell>
        <mxCell id="dcA5H87NYggEzzWNYhaF-9" value="" style="endArrow=classic;html=1;rounded=0;strokeColor=#FF0000;" edge="1" parent="dcA5H87NYggEzzWNYhaF-2">
          <mxGeometry width="50" height="50" relative="1" as="geometry">
            <mxPoint x="210" y="150" as="sourcePoint" />
            <mxPoint x="165.45999999999998" y="120" as="targetPoint" />
          </mxGeometry>
        </mxCell>
        <mxCell id="dcA5H87NYggEzzWNYhaF-10" value="" style="endArrow=classic;html=1;rounded=0;strokeColor=#FF0000;" edge="1" parent="dcA5H87NYggEzzWNYhaF-2">
          <mxGeometry width="50" height="50" relative="1" as="geometry">
            <mxPoint x="165.45999999999998" y="83" as="sourcePoint" />
            <mxPoint x="150" y="40" as="targetPoint" />
          </mxGeometry>
        </mxCell>
        <mxCell id="dcA5H87NYggEzzWNYhaF-11" value="" style="endArrow=block;html=1;rounded=0;strokeWidth=2;endFill=1;startArrow=none;startFill=0;" edge="1" parent="1">
          <mxGeometry width="50" height="50" relative="1" as="geometry">
            <mxPoint x="841" y="406" as="sourcePoint" />
            <mxPoint x="841" y="326" as="targetPoint" />
          </mxGeometry>
        </mxCell>
        <mxCell id="dcA5H87NYggEzzWNYhaF-12" value="" style="endArrow=none;html=1;rounded=0;strokeWidth=2;endFill=0;startArrow=block;startFill=1;" edge="1" parent="1">
          <mxGeometry width="50" height="50" relative="1" as="geometry">
            <mxPoint x="841" y="406" as="sourcePoint" />
            <mxPoint x="921" y="446" as="targetPoint" />
          </mxGeometry>
        </mxCell>
        <mxCell id="dcA5H87NYggEzzWNYhaF-13" value="" style="endArrow=none;html=1;rounded=0;strokeWidth=2;startArrow=none;startFill=0;endFill=0;" edge="1" parent="1">
          <mxGeometry width="50" height="50" relative="1" as="geometry">
            <mxPoint x="841" y="406" as="sourcePoint" />
            <mxPoint x="761" y="446" as="targetPoint" />
          </mxGeometry>
        </mxCell>
        <mxCell id="dcA5H87NYggEzzWNYhaF-14" value="A" style="text;html=1;align=center;verticalAlign=middle;resizable=0;points=[];autosize=1;strokeColor=none;fillColor=none;" vertex="1" parent="1">
          <mxGeometry x="811" y="324" width="30" height="30" as="geometry" />
        </mxCell>
        <mxCell id="dcA5H87NYggEzzWNYhaF-15" value="B" style="text;html=1;align=center;verticalAlign=middle;resizable=0;points=[];autosize=1;strokeColor=none;fillColor=none;" vertex="1" parent="1">
          <mxGeometry x="911" y="420" width="30" height="30" as="geometry" />
        </mxCell>
        <mxCell id="dcA5H87NYggEzzWNYhaF-16" value="" style="shape=flexArrow;endArrow=classic;html=1;rounded=0;" edge="1" parent="1">
          <mxGeometry width="50" height="50" relative="1" as="geometry">
            <mxPoint x="692" y="375.5" as="sourcePoint" />
            <mxPoint x="782" y="375.5" as="targetPoint" />
          </mxGeometry>
        </mxCell>
        <mxCell id="dcA5H87NYggEzzWNYhaF-17" value="" style="group;rotation=-120;" vertex="1" connectable="0" parent="1">
          <mxGeometry x="881" y="360" width="80" height="20" as="geometry" />
        </mxCell>
        <mxCell id="dcA5H87NYggEzzWNYhaF-18" value="N" style="rounded=0;whiteSpace=wrap;html=1;fillColor=#FF0000;fontColor=#ffffff;strokeColor=#B20000;rotation=60;" vertex="1" parent="dcA5H87NYggEzzWNYhaF-17">
          <mxGeometry x="10" y="-17" width="40" height="20" as="geometry" />
        </mxCell>
        <mxCell id="dcA5H87NYggEzzWNYhaF-19" value="S" style="rounded=0;whiteSpace=wrap;html=1;rotation=-300;" vertex="1" parent="dcA5H87NYggEzzWNYhaF-17">
          <mxGeometry x="30" y="18" width="40" height="20" as="geometry" />
        </mxCell>
        <mxCell id="dcA5H87NYggEzzWNYhaF-20" value="" style="endArrow=classic;html=1;rounded=0;strokeWidth=2;strokeColor=#FF0000;entryX=1;entryY=0;entryDx=0;entryDy=0;entryPerimeter=0;" edge="1" parent="1" target="dcA5H87NYggEzzWNYhaF-14">
          <mxGeometry width="50" height="50" relative="1" as="geometry">
            <mxPoint x="921" y="447" as="sourcePoint" />
            <mxPoint x="761" y="448" as="targetPoint" />
          </mxGeometry>
        </mxCell>
        <mxCell id="dcA5H87NYggEzzWNYhaF-21" value="C" style="text;html=1;align=center;verticalAlign=middle;resizable=0;points=[];autosize=1;strokeColor=none;fillColor=none;" vertex="1" parent="1">
          <mxGeometry x="746" y="408" width="30" height="30" as="geometry" />
        </mxCell>
        <mxCell id="WTUvvSCb_PF3Wj7l5i9i-1" value="" style="group" vertex="1" connectable="0" parent="1">
          <mxGeometry x="41" y="559" width="215.92304845413264" height="190" as="geometry" />
        </mxCell>
        <mxCell id="WTUvvSCb_PF3Wj7l5i9i-2" value="" style="group" vertex="1" connectable="0" parent="WTUvvSCb_PF3Wj7l5i9i-1">
          <mxGeometry width="215.92304845413264" height="190" as="geometry" />
        </mxCell>
        <mxCell id="WTUvvSCb_PF3Wj7l5i9i-3" value="" style="pointerEvents=1;verticalLabelPosition=bottom;shadow=0;dashed=0;align=center;html=1;verticalAlign=top;shape=mxgraph.electrical.inductors.inductor_5;rotation=-30;fillColor=#ffe6cc;strokeColor=#d79b00;" vertex="1" parent="WTUvvSCb_PF3Wj7l5i9i-2">
          <mxGeometry x="-4.53847577293368" y="141" width="120" height="14" as="geometry" />
        </mxCell>
        <mxCell id="WTUvvSCb_PF3Wj7l5i9i-4" value="" style="pointerEvents=1;verticalLabelPosition=bottom;shadow=0;dashed=0;align=center;html=1;verticalAlign=top;shape=mxgraph.electrical.inductors.inductor_5;rotation=-90;fillColor=#ffe6cc;strokeColor=#d79b00;" vertex="1" parent="WTUvvSCb_PF3Wj7l5i9i-2">
          <mxGeometry x="45.46152422706632" y="53" width="120" height="14" as="geometry" />
        </mxCell>
        <mxCell id="WTUvvSCb_PF3Wj7l5i9i-5" value="" style="pointerEvents=1;verticalLabelPosition=bottom;shadow=0;dashed=0;align=center;html=1;verticalAlign=top;shape=mxgraph.electrical.inductors.inductor_5;rotation=30;fillColor=#ffe6cc;strokeColor=#d79b00;" vertex="1" parent="WTUvvSCb_PF3Wj7l5i9i-2">
          <mxGeometry x="100.46152422706632" y="141" width="120" height="14" as="geometry" />
        </mxCell>
        <mxCell id="WTUvvSCb_PF3Wj7l5i9i-6" value="A" style="text;html=1;align=center;verticalAlign=middle;resizable=0;points=[];autosize=1;strokeColor=none;fillColor=none;" vertex="1" parent="WTUvvSCb_PF3Wj7l5i9i-2">
          <mxGeometry x="110.00152422706631" width="30" height="30" as="geometry" />
        </mxCell>
        <mxCell id="WTUvvSCb_PF3Wj7l5i9i-7" value="B" style="text;html=1;align=center;verticalAlign=middle;resizable=0;points=[];autosize=1;strokeColor=none;fillColor=none;" vertex="1" parent="WTUvvSCb_PF3Wj7l5i9i-2">
          <mxGeometry x="180.00152422706628" y="160" width="30" height="30" as="geometry" />
        </mxCell>
        <mxCell id="WTUvvSCb_PF3Wj7l5i9i-8" value="C" style="text;html=1;align=center;verticalAlign=middle;resizable=0;points=[];autosize=1;strokeColor=none;fillColor=none;" vertex="1" parent="WTUvvSCb_PF3Wj7l5i9i-2">
          <mxGeometry x="10.001524227066284" y="160" width="30" height="30" as="geometry" />
        </mxCell>
        <mxCell id="WTUvvSCb_PF3Wj7l5i9i-9" value="" style="endArrow=block;html=1;rounded=0;strokeWidth=2;endFill=1;startArrow=none;startFill=0;" edge="1" parent="1">
          <mxGeometry width="50" height="50" relative="1" as="geometry">
            <mxPoint x="363" y="680" as="sourcePoint" />
            <mxPoint x="363" y="600" as="targetPoint" />
          </mxGeometry>
        </mxCell>
        <mxCell id="WTUvvSCb_PF3Wj7l5i9i-10" value="" style="endArrow=none;html=1;rounded=0;strokeWidth=2;endFill=0;startArrow=none;startFill=0;" edge="1" parent="1">
          <mxGeometry width="50" height="50" relative="1" as="geometry">
            <mxPoint x="363" y="680" as="sourcePoint" />
            <mxPoint x="443" y="720" as="targetPoint" />
          </mxGeometry>
        </mxCell>
        <mxCell id="WTUvvSCb_PF3Wj7l5i9i-11" value="" style="endArrow=none;html=1;rounded=0;strokeWidth=2;startArrow=block;startFill=1;endFill=0;" edge="1" parent="1">
          <mxGeometry width="50" height="50" relative="1" as="geometry">
            <mxPoint x="363" y="680" as="sourcePoint" />
            <mxPoint x="283" y="720" as="targetPoint" />
          </mxGeometry>
        </mxCell>
        <mxCell id="WTUvvSCb_PF3Wj7l5i9i-12" value="A" style="text;html=1;align=center;verticalAlign=middle;resizable=0;points=[];autosize=1;strokeColor=none;fillColor=none;" vertex="1" parent="1">
          <mxGeometry x="333" y="598" width="30" height="30" as="geometry" />
        </mxCell>
        <mxCell id="WTUvvSCb_PF3Wj7l5i9i-13" value="B" style="text;html=1;align=center;verticalAlign=middle;resizable=0;points=[];autosize=1;strokeColor=none;fillColor=none;" vertex="1" parent="1">
          <mxGeometry x="433" y="694" width="30" height="30" as="geometry" />
        </mxCell>
        <mxCell id="WTUvvSCb_PF3Wj7l5i9i-14" value="" style="shape=flexArrow;endArrow=classic;html=1;rounded=0;" edge="1" parent="1">
          <mxGeometry width="50" height="50" relative="1" as="geometry">
            <mxPoint x="172" y="653.5" as="sourcePoint" />
            <mxPoint x="262" y="653.5" as="targetPoint" />
          </mxGeometry>
        </mxCell>
        <mxCell id="WTUvvSCb_PF3Wj7l5i9i-15" value="" style="endArrow=block;html=1;rounded=0;endFill=1;fillColor=#e51400;strokeColor=#B20000;startArrow=none;startFill=0;" edge="1" parent="1">
          <mxGeometry width="50" height="50" relative="1" as="geometry">
            <mxPoint x="127" y="638" as="sourcePoint" />
            <mxPoint x="127" y="593" as="targetPoint" />
          </mxGeometry>
        </mxCell>
        <mxCell id="WTUvvSCb_PF3Wj7l5i9i-16" value="" style="endArrow=none;html=1;rounded=0;endFill=0;fillColor=#e51400;strokeColor=#B20000;startArrow=block;startFill=1;" edge="1" parent="1">
          <mxGeometry width="50" height="50" relative="1" as="geometry">
            <mxPoint x="97" y="687" as="sourcePoint" />
            <mxPoint x="87" y="697" as="targetPoint" />
          </mxGeometry>
        </mxCell>
        <mxCell id="WTUvvSCb_PF3Wj7l5i9i-17" value="" style="endArrow=none;html=1;rounded=0;strokeWidth=2;strokeColor=#FF0000;endFill=0;startArrow=block;startFill=1;exitX=0.933;exitY=0.333;exitDx=0;exitDy=0;exitPerimeter=0;" edge="1" parent="1" source="WTUvvSCb_PF3Wj7l5i9i-12">
          <mxGeometry width="50" height="50" relative="1" as="geometry">
            <mxPoint x="443" y="721" as="sourcePoint" />
            <mxPoint x="283" y="722" as="targetPoint" />
          </mxGeometry>
        </mxCell>
        <mxCell id="WTUvvSCb_PF3Wj7l5i9i-18" value="C" style="text;html=1;align=center;verticalAlign=middle;resizable=0;points=[];autosize=1;strokeColor=none;fillColor=none;" vertex="1" parent="1">
          <mxGeometry x="268" y="682" width="30" height="30" as="geometry" />
        </mxCell>
        <mxCell id="WTUvvSCb_PF3Wj7l5i9i-19" value="" style="group;rotation=-235;" vertex="1" connectable="0" parent="1">
          <mxGeometry x="252.9985220324993" y="634.0024749196905" width="80.34295593500133" height="21.69505016061919" as="geometry" />
        </mxCell>
        <mxCell id="WTUvvSCb_PF3Wj7l5i9i-20" value="N" style="rounded=0;whiteSpace=wrap;html=1;fillColor=#FF0000;fontColor=#ffffff;strokeColor=#B20000;rotation=-594;" vertex="1" parent="WTUvvSCb_PF3Wj7l5i9i-19">
          <mxGeometry x="31" y="-15" width="40" height="20" as="geometry" />
        </mxCell>
        <mxCell id="WTUvvSCb_PF3Wj7l5i9i-21" value="S" style="rounded=0;whiteSpace=wrap;html=1;rotation=-594;" vertex="1" parent="WTUvvSCb_PF3Wj7l5i9i-19">
          <mxGeometry x="8" y="17" width="40" height="20" as="geometry" />
        </mxCell>
        <mxCell id="OfnLJYGB3Yyqc4rcQv0h-22" value="" style="group" vertex="1" connectable="0" parent="1">
          <mxGeometry x="521" y="561" width="215.92304845413264" height="190" as="geometry" />
        </mxCell>
        <mxCell id="OfnLJYGB3Yyqc4rcQv0h-23" value="" style="group" vertex="1" connectable="0" parent="OfnLJYGB3Yyqc4rcQv0h-22">
          <mxGeometry width="215.92304845413264" height="190" as="geometry" />
        </mxCell>
        <mxCell id="OfnLJYGB3Yyqc4rcQv0h-24" value="" style="pointerEvents=1;verticalLabelPosition=bottom;shadow=0;dashed=0;align=center;html=1;verticalAlign=top;shape=mxgraph.electrical.inductors.inductor_5;rotation=-30;fillColor=#ffe6cc;strokeColor=#d79b00;" vertex="1" parent="OfnLJYGB3Yyqc4rcQv0h-23">
          <mxGeometry x="-4.53847577293368" y="141" width="120" height="14" as="geometry" />
        </mxCell>
        <mxCell id="OfnLJYGB3Yyqc4rcQv0h-25" value="" style="pointerEvents=1;verticalLabelPosition=bottom;shadow=0;dashed=0;align=center;html=1;verticalAlign=top;shape=mxgraph.electrical.inductors.inductor_5;rotation=-90;fillColor=#ffe6cc;strokeColor=#d79b00;" vertex="1" parent="OfnLJYGB3Yyqc4rcQv0h-23">
          <mxGeometry x="45.46152422706632" y="53" width="120" height="14" as="geometry" />
        </mxCell>
        <mxCell id="OfnLJYGB3Yyqc4rcQv0h-26" value="" style="pointerEvents=1;verticalLabelPosition=bottom;shadow=0;dashed=0;align=center;html=1;verticalAlign=top;shape=mxgraph.electrical.inductors.inductor_5;rotation=30;fillColor=#ffe6cc;strokeColor=#d79b00;" vertex="1" parent="OfnLJYGB3Yyqc4rcQv0h-23">
          <mxGeometry x="100.46152422706632" y="141" width="120" height="14" as="geometry" />
        </mxCell>
        <mxCell id="OfnLJYGB3Yyqc4rcQv0h-27" value="A" style="text;html=1;align=center;verticalAlign=middle;resizable=0;points=[];autosize=1;strokeColor=none;fillColor=none;" vertex="1" parent="OfnLJYGB3Yyqc4rcQv0h-23">
          <mxGeometry x="110.00152422706631" width="30" height="30" as="geometry" />
        </mxCell>
        <mxCell id="OfnLJYGB3Yyqc4rcQv0h-28" value="B" style="text;html=1;align=center;verticalAlign=middle;resizable=0;points=[];autosize=1;strokeColor=none;fillColor=none;" vertex="1" parent="OfnLJYGB3Yyqc4rcQv0h-23">
          <mxGeometry x="180.00152422706628" y="160" width="30" height="30" as="geometry" />
        </mxCell>
        <mxCell id="OfnLJYGB3Yyqc4rcQv0h-29" value="C" style="text;html=1;align=center;verticalAlign=middle;resizable=0;points=[];autosize=1;strokeColor=none;fillColor=none;" vertex="1" parent="OfnLJYGB3Yyqc4rcQv0h-23">
          <mxGeometry x="10.001524227066284" y="160" width="30" height="30" as="geometry" />
        </mxCell>
        <mxCell id="OfnLJYGB3Yyqc4rcQv0h-30" value="" style="endArrow=none;html=1;rounded=0;strokeWidth=2;endFill=0;startArrow=none;startFill=0;" edge="1" parent="1">
          <mxGeometry width="50" height="50" relative="1" as="geometry">
            <mxPoint x="842" y="680" as="sourcePoint" />
            <mxPoint x="842" y="600" as="targetPoint" />
          </mxGeometry>
        </mxCell>
        <mxCell id="OfnLJYGB3Yyqc4rcQv0h-31" value="" style="endArrow=block;html=1;rounded=0;strokeWidth=2;endFill=1;startArrow=none;startFill=0;" edge="1" parent="1">
          <mxGeometry width="50" height="50" relative="1" as="geometry">
            <mxPoint x="842" y="680" as="sourcePoint" />
            <mxPoint x="922" y="720" as="targetPoint" />
          </mxGeometry>
        </mxCell>
        <mxCell id="OfnLJYGB3Yyqc4rcQv0h-32" value="" style="endArrow=none;html=1;rounded=0;strokeWidth=2;startArrow=block;startFill=1;endFill=0;" edge="1" parent="1">
          <mxGeometry width="50" height="50" relative="1" as="geometry">
            <mxPoint x="842" y="680" as="sourcePoint" />
            <mxPoint x="762" y="720" as="targetPoint" />
          </mxGeometry>
        </mxCell>
        <mxCell id="OfnLJYGB3Yyqc4rcQv0h-33" value="A" style="text;html=1;align=center;verticalAlign=middle;resizable=0;points=[];autosize=1;strokeColor=none;fillColor=none;" vertex="1" parent="1">
          <mxGeometry x="812" y="598" width="30" height="30" as="geometry" />
        </mxCell>
        <mxCell id="OfnLJYGB3Yyqc4rcQv0h-34" value="B" style="text;html=1;align=center;verticalAlign=middle;resizable=0;points=[];autosize=1;strokeColor=none;fillColor=none;" vertex="1" parent="1">
          <mxGeometry x="912" y="694" width="30" height="30" as="geometry" />
        </mxCell>
        <mxCell id="OfnLJYGB3Yyqc4rcQv0h-35" value="" style="shape=flexArrow;endArrow=classic;html=1;rounded=0;" edge="1" parent="1">
          <mxGeometry width="50" height="50" relative="1" as="geometry">
            <mxPoint x="677" y="655.5" as="sourcePoint" />
            <mxPoint x="767" y="655.5" as="targetPoint" />
          </mxGeometry>
        </mxCell>
        <mxCell id="OfnLJYGB3Yyqc4rcQv0h-36" value="" style="endArrow=block;html=1;rounded=0;endFill=1;fillColor=#e51400;strokeColor=#B20000;startArrow=none;startFill=0;" edge="1" parent="1">
          <mxGeometry width="50" height="50" relative="1" as="geometry">
            <mxPoint x="676" y="688" as="sourcePoint" />
            <mxPoint x="696" y="698" as="targetPoint" />
          </mxGeometry>
        </mxCell>
        <mxCell id="OfnLJYGB3Yyqc4rcQv0h-37" value="" style="endArrow=none;html=1;rounded=0;endFill=0;fillColor=#e51400;strokeColor=#B20000;startArrow=block;startFill=1;" edge="1" parent="1">
          <mxGeometry width="50" height="50" relative="1" as="geometry">
            <mxPoint x="577" y="689" as="sourcePoint" />
            <mxPoint x="567" y="699" as="targetPoint" />
          </mxGeometry>
        </mxCell>
        <mxCell id="OfnLJYGB3Yyqc4rcQv0h-38" value="" style="endArrow=none;html=1;rounded=0;strokeWidth=2;strokeColor=#FF0000;endFill=0;startArrow=block;startFill=1;" edge="1" parent="1">
          <mxGeometry width="50" height="50" relative="1" as="geometry">
            <mxPoint x="922" y="721" as="sourcePoint" />
            <mxPoint x="762" y="722" as="targetPoint" />
          </mxGeometry>
        </mxCell>
        <mxCell id="OfnLJYGB3Yyqc4rcQv0h-39" value="C" style="text;html=1;align=center;verticalAlign=middle;resizable=0;points=[];autosize=1;strokeColor=none;fillColor=none;" vertex="1" parent="1">
          <mxGeometry x="747" y="682" width="30" height="30" as="geometry" />
        </mxCell>
        <mxCell id="OfnLJYGB3Yyqc4rcQv0h-40" value="" style="group;rotation=-180;" vertex="1" connectable="0" parent="1">
          <mxGeometry x="805.9985220324993" y="734.0024749196905" width="80.34295593500133" height="21.69505016061919" as="geometry" />
        </mxCell>
        <mxCell id="OfnLJYGB3Yyqc4rcQv0h-41" value="N" style="rounded=0;whiteSpace=wrap;html=1;fillColor=#FF0000;fontColor=#ffffff;strokeColor=#B20000;rotation=-539;" vertex="1" parent="OfnLJYGB3Yyqc4rcQv0h-40">
          <mxGeometry x="40" y="1" width="40" height="20" as="geometry" />
        </mxCell>
        <mxCell id="OfnLJYGB3Yyqc4rcQv0h-42" value="S" style="rounded=0;whiteSpace=wrap;html=1;rotation=-539;" vertex="1" parent="OfnLJYGB3Yyqc4rcQv0h-40">
          <mxGeometry width="40" height="20" as="geometry" />
        </mxCell>
        <mxCell id="OfnLJYGB3Yyqc4rcQv0h-43" value="&lt;b&gt;&lt;font color=&quot;#ff0000&quot;&gt;AB&lt;/font&gt;&lt;/b&gt;" style="text;html=1;align=center;verticalAlign=middle;resizable=0;points=[];autosize=1;strokeColor=none;fillColor=none;" vertex="1" parent="1">
          <mxGeometry x="210" y="18" width="40" height="30" as="geometry" />
        </mxCell>
        <mxCell id="OfnLJYGB3Yyqc4rcQv0h-44" value="&lt;b&gt;&lt;font color=&quot;#ff0000&quot;&gt;AC&lt;/font&gt;&lt;/b&gt;" style="text;html=1;align=center;verticalAlign=middle;resizable=0;points=[];autosize=1;strokeColor=none;fillColor=none;" vertex="1" parent="1">
          <mxGeometry x="545" y="24" width="40" height="30" as="geometry" />
        </mxCell>
        <mxCell id="OfnLJYGB3Yyqc4rcQv0h-45" value="&lt;b&gt;&lt;font color=&quot;#ff0000&quot;&gt;BC&lt;/font&gt;&lt;/b&gt;" style="text;html=1;align=center;verticalAlign=middle;resizable=0;points=[];autosize=1;strokeColor=none;fillColor=none;" vertex="1" parent="1">
          <mxGeometry x="190" y="268" width="40" height="30" as="geometry" />
        </mxCell>
        <mxCell id="OfnLJYGB3Yyqc4rcQv0h-46" value="&lt;b&gt;&lt;font color=&quot;#ff0000&quot;&gt;BA&lt;/font&gt;&lt;/b&gt;" style="text;html=1;align=center;verticalAlign=middle;resizable=0;points=[];autosize=1;strokeColor=none;fillColor=none;" vertex="1" parent="1">
          <mxGeometry x="700" y="278" width="40" height="30" as="geometry" />
        </mxCell>
        <mxCell id="OfnLJYGB3Yyqc4rcQv0h-47" value="&lt;b&gt;&lt;font color=&quot;#ff0000&quot;&gt;CA&lt;/font&gt;&lt;/b&gt;" style="text;html=1;align=center;verticalAlign=middle;resizable=0;points=[];autosize=1;strokeColor=none;fillColor=none;" vertex="1" parent="1">
          <mxGeometry x="180" y="538" width="40" height="30" as="geometry" />
        </mxCell>
        <mxCell id="OfnLJYGB3Yyqc4rcQv0h-48" value="&lt;b&gt;&lt;font color=&quot;#ff0000&quot;&gt;CB&lt;/font&gt;&lt;/b&gt;" style="text;html=1;align=center;verticalAlign=middle;resizable=0;points=[];autosize=1;strokeColor=none;fillColor=none;" vertex="1" parent="1">
          <mxGeometry x="650" y="528" width="40" height="30" as="geometry" />
        </mxCell>
      </root>
    </mxGraphModel>
  </diagram>
  <diagram id="je6QDe46N-ejvgiigGjK" name="FOC 经典控制">
    <mxGraphModel dx="954" dy="558" grid="1" gridSize="10" guides="1" tooltips="1" connect="1" arrows="1" fold="1" page="1" pageScale="1" pageWidth="1169" pageHeight="827" math="0" shadow="0">
      <root>
        <mxCell id="0" />
        <mxCell id="1" parent="0" />
        <mxCell id="33I2rxbWa-iCSyptK09Y-3" value="" style="endArrow=classic;html=1;rounded=0;entryX=0;entryY=0.15;entryDx=0;entryDy=0;entryPerimeter=0;" edge="1" parent="1" target="33I2rxbWa-iCSyptK09Y-10">
          <mxGeometry width="50" height="50" relative="1" as="geometry">
            <mxPoint x="480" y="130" as="sourcePoint" />
            <mxPoint x="550" y="130" as="targetPoint" />
          </mxGeometry>
        </mxCell>
        <mxCell id="33I2rxbWa-iCSyptK09Y-4" value="" style="endArrow=classic;html=1;rounded=0;entryX=0;entryY=0.5;entryDx=0;entryDy=0;" edge="1" parent="1" target="33I2rxbWa-iCSyptK09Y-10">
          <mxGeometry width="50" height="50" relative="1" as="geometry">
            <mxPoint x="480" y="150" as="sourcePoint" />
            <mxPoint x="550" y="150" as="targetPoint" />
          </mxGeometry>
        </mxCell>
        <mxCell id="33I2rxbWa-iCSyptK09Y-5" value="FoC&lt;div&gt;控制&lt;/div&gt;" style="rounded=0;whiteSpace=wrap;html=1;fillColor=#ffe6cc;strokeColor=#d79b00;" vertex="1" parent="1">
          <mxGeometry x="360" y="120" width="120" height="200" as="geometry" />
        </mxCell>
        <mxCell id="33I2rxbWa-iCSyptK09Y-6" value="" style="endArrow=classic;html=1;rounded=0;entryX=0.031;entryY=0.867;entryDx=0;entryDy=0;entryPerimeter=0;" edge="1" parent="1" target="33I2rxbWa-iCSyptK09Y-10">
          <mxGeometry width="50" height="50" relative="1" as="geometry">
            <mxPoint x="480" y="170" as="sourcePoint" />
            <mxPoint x="550" y="170" as="targetPoint" />
          </mxGeometry>
        </mxCell>
        <mxCell id="33I2rxbWa-iCSyptK09Y-7" value="PWM1" style="text;html=1;align=center;verticalAlign=middle;resizable=0;points=[];autosize=1;strokeColor=none;fillColor=none;" vertex="1" parent="1">
          <mxGeometry x="480" y="100" width="60" height="30" as="geometry" />
        </mxCell>
        <mxCell id="33I2rxbWa-iCSyptK09Y-8" value="PWM2" style="text;html=1;align=center;verticalAlign=middle;resizable=0;points=[];autosize=1;strokeColor=none;fillColor=none;" vertex="1" parent="1">
          <mxGeometry x="480" y="128" width="60" height="30" as="geometry" />
        </mxCell>
        <mxCell id="33I2rxbWa-iCSyptK09Y-9" value="PWM3" style="text;html=1;align=center;verticalAlign=middle;resizable=0;points=[];autosize=1;strokeColor=none;fillColor=none;" vertex="1" parent="1">
          <mxGeometry x="480" y="150" width="60" height="30" as="geometry" />
        </mxCell>
        <mxCell id="33I2rxbWa-iCSyptK09Y-13" style="edgeStyle=orthogonalEdgeStyle;rounded=0;orthogonalLoop=1;jettySize=auto;html=1;exitX=1;exitY=0.25;exitDx=0;exitDy=0;entryX=0;entryY=0.25;entryDx=0;entryDy=0;" edge="1" parent="1" source="33I2rxbWa-iCSyptK09Y-10" target="33I2rxbWa-iCSyptK09Y-11">
          <mxGeometry relative="1" as="geometry" />
        </mxCell>
        <mxCell id="33I2rxbWa-iCSyptK09Y-14" style="edgeStyle=orthogonalEdgeStyle;rounded=0;orthogonalLoop=1;jettySize=auto;html=1;exitX=1;exitY=0.5;exitDx=0;exitDy=0;entryX=0;entryY=0.5;entryDx=0;entryDy=0;" edge="1" parent="1" source="33I2rxbWa-iCSyptK09Y-10" target="33I2rxbWa-iCSyptK09Y-11">
          <mxGeometry relative="1" as="geometry" />
        </mxCell>
        <mxCell id="33I2rxbWa-iCSyptK09Y-15" style="edgeStyle=orthogonalEdgeStyle;rounded=0;orthogonalLoop=1;jettySize=auto;html=1;exitX=1;exitY=0.75;exitDx=0;exitDy=0;entryX=0;entryY=0.75;entryDx=0;entryDy=0;" edge="1" parent="1" source="33I2rxbWa-iCSyptK09Y-10" target="33I2rxbWa-iCSyptK09Y-11">
          <mxGeometry relative="1" as="geometry" />
        </mxCell>
        <mxCell id="33I2rxbWa-iCSyptK09Y-42" style="edgeStyle=orthogonalEdgeStyle;rounded=0;orthogonalLoop=1;jettySize=auto;html=1;exitX=0.25;exitY=1;exitDx=0;exitDy=0;entryX=1.021;entryY=0.405;entryDx=0;entryDy=0;entryPerimeter=0;" edge="1" parent="1" source="33I2rxbWa-iCSyptK09Y-10" target="33I2rxbWa-iCSyptK09Y-5">
          <mxGeometry relative="1" as="geometry">
            <mxPoint x="600" y="250" as="targetPoint" />
          </mxGeometry>
        </mxCell>
        <mxCell id="33I2rxbWa-iCSyptK09Y-44" style="edgeStyle=orthogonalEdgeStyle;rounded=0;orthogonalLoop=1;jettySize=auto;html=1;exitX=0.75;exitY=1;exitDx=0;exitDy=0;entryX=0.992;entryY=0.6;entryDx=0;entryDy=0;entryPerimeter=0;" edge="1" parent="1" source="33I2rxbWa-iCSyptK09Y-10" target="33I2rxbWa-iCSyptK09Y-5">
          <mxGeometry relative="1" as="geometry" />
        </mxCell>
        <mxCell id="33I2rxbWa-iCSyptK09Y-10" value="driver" style="rounded=1;whiteSpace=wrap;html=1;fillColor=#d5e8d4;strokeColor=#82b366;" vertex="1" parent="1">
          <mxGeometry x="600" y="120" width="80" height="60" as="geometry" />
        </mxCell>
        <mxCell id="33I2rxbWa-iCSyptK09Y-11" value="motor" style="rounded=1;whiteSpace=wrap;html=1;fillColor=#dae8fc;strokeColor=#6c8ebf;" vertex="1" parent="1">
          <mxGeometry x="760" y="120" width="80" height="60" as="geometry" />
        </mxCell>
        <mxCell id="33I2rxbWa-iCSyptK09Y-43" style="edgeStyle=orthogonalEdgeStyle;rounded=0;orthogonalLoop=1;jettySize=auto;html=1;exitX=0.5;exitY=1;exitDx=0;exitDy=0;entryX=1;entryY=0.5;entryDx=0;entryDy=0;" edge="1" parent="1" source="33I2rxbWa-iCSyptK09Y-10" target="33I2rxbWa-iCSyptK09Y-5">
          <mxGeometry relative="1" as="geometry" />
        </mxCell>
        <mxCell id="33I2rxbWa-iCSyptK09Y-47" value="Ia" style="text;html=1;align=center;verticalAlign=middle;resizable=0;points=[];autosize=1;strokeColor=none;fillColor=none;" vertex="1" parent="1">
          <mxGeometry x="570" y="170" width="30" height="30" as="geometry" />
        </mxCell>
        <mxCell id="33I2rxbWa-iCSyptK09Y-48" value="Ib" style="text;html=1;align=center;verticalAlign=middle;resizable=0;points=[];autosize=1;strokeColor=none;fillColor=none;" vertex="1" parent="1">
          <mxGeometry x="570" y="198" width="30" height="30" as="geometry" />
        </mxCell>
        <mxCell id="33I2rxbWa-iCSyptK09Y-49" value="Ic" style="text;html=1;align=center;verticalAlign=middle;resizable=0;points=[];autosize=1;strokeColor=none;fillColor=none;" vertex="1" parent="1">
          <mxGeometry x="570" y="220" width="30" height="30" as="geometry" />
        </mxCell>
        <mxCell id="33I2rxbWa-iCSyptK09Y-51" value="编码器" style="rounded=1;whiteSpace=wrap;html=1;fillColor=#ffe6cc;strokeColor=#d79b00;" vertex="1" parent="1">
          <mxGeometry x="570" y="280" width="80" height="40" as="geometry" />
        </mxCell>
        <mxCell id="33I2rxbWa-iCSyptK09Y-53" style="edgeStyle=orthogonalEdgeStyle;rounded=0;orthogonalLoop=1;jettySize=auto;html=1;exitX=0;exitY=0.5;exitDx=0;exitDy=0;entryX=1.025;entryY=0.9;entryDx=0;entryDy=0;entryPerimeter=0;" edge="1" parent="1" source="33I2rxbWa-iCSyptK09Y-51" target="33I2rxbWa-iCSyptK09Y-5">
          <mxGeometry relative="1" as="geometry" />
        </mxCell>
        <mxCell id="33I2rxbWa-iCSyptK09Y-54" value="角度、速度、&lt;div&gt;位移&lt;/div&gt;" style="text;html=1;align=center;verticalAlign=middle;resizable=0;points=[];autosize=1;strokeColor=none;fillColor=none;" vertex="1" parent="1">
          <mxGeometry x="480" y="260" width="100" height="40" as="geometry" />
        </mxCell>
        <mxCell id="33I2rxbWa-iCSyptK09Y-56" value="栅极驱动器" style="text;html=1;align=center;verticalAlign=middle;resizable=0;points=[];autosize=1;strokeColor=none;fillColor=none;" vertex="1" parent="1">
          <mxGeometry x="590" y="78" width="80" height="30" as="geometry" />
        </mxCell>
      </root>
    </mxGraphModel>
  </diagram>
</mxfile>
